<?xml version="1.0" encoding="UTF-8"?>
<svg width="377.56" height="299.96" enable-background="new 0 0 377.56 299.963" viewBox="0 0 377.56 299.963" xmlns="http://www.w3.org/2000/svg">
 <defs>
  <linearGradient id="ac" x2="0" y1="300.18" y2="-.10274" gradientUnits="userSpaceOnUse">
   <stop offset="0"/>
   <stop offset="1"/>
  </linearGradient>
  <linearGradient id="r" x2="0" y1="274.99" y2="230.27" gradientUnits="userSpaceOnUse">
   <stop stop-color="#fff" offset="0"/>
   <stop stop-color="#fff" offset="1"/>
  </linearGradient>
  <linearGradient id="g" x2="0" y1="117.12" y2="1.247" gradientUnits="userSpaceOnUse">
   <stop stop-color="#fff" offset="0"/>
   <stop stop-color="#fff" offset="1"/>
  </linearGradient>
  <linearGradient id="f" x2="0" y1="76.739" y2="7.834" gradientUnits="userSpaceOnUse">
   <stop offset="0"/>
   <stop offset="1"/>
  </linearGradient>
  <linearGradient id="e" x2="0" y1="19.297" y2="11.143" gradientUnits="userSpaceOnUse">
   <stop stop-color="#fff" offset="0"/>
   <stop stop-color="#fff" offset="1"/>
  </linearGradient>
  <linearGradient id="d" x2="0" y1="27.819" y2="17.941" gradientUnits="userSpaceOnUse">
   <stop stop-color="#fff" offset="0"/>
   <stop stop-color="#fff" offset="1"/>
  </linearGradient>
  <linearGradient id="c" x2="0" y1="40.725" y2="21.058" gradientUnits="userSpaceOnUse">
   <stop stop-color="#fdcdb8" offset="0"/>
   <stop stop-color="#988a74" offset="1"/>
  </linearGradient>
  <linearGradient id="b" x2="0" y1="39.046" y2="23.857" gradientUnits="userSpaceOnUse">
   <stop stop-color="#fdcdb8" offset="0"/>
   <stop stop-color="#988a74" offset="1"/>
  </linearGradient>
  <linearGradient id="a" x2="0" y1="53.949" y2="35.998" gradientUnits="userSpaceOnUse">
   <stop stop-color="#fff" offset="0"/>
   <stop stop-color="#fff" offset="1"/>
  </linearGradient>
  <linearGradient id="am" x2="0" y1="57.177" y2="37.192" gradientUnits="userSpaceOnUse">
   <stop stop-color="#fff" offset="0"/>
   <stop stop-color="#fff" offset="1"/>
  </linearGradient>
  <linearGradient id="al" x2="0" y1="136.79" y2="43.723" gradientUnits="userSpaceOnUse">
   <stop stop-color="#fff" offset="0"/>
   <stop stop-color="#fff" offset="1"/>
  </linearGradient>
  <linearGradient id="ak" x2="0" y1="97.825" y2="53.949" gradientUnits="userSpaceOnUse">
   <stop stop-color="#fff" offset="0"/>
   <stop stop-color="#fff" offset="1"/>
  </linearGradient>
  <linearGradient id="aj" x2="0" y1="98.901" y2="54.098" gradientUnits="userSpaceOnUse">
   <stop stop-color="#fff" offset="0"/>
   <stop stop-color="#fff" offset="1"/>
  </linearGradient>
  <linearGradient id="ai" x2="0" y1="107.63" y2="95.424" gradientUnits="userSpaceOnUse">
   <stop offset="0"/>
   <stop offset="1"/>
  </linearGradient>
  <linearGradient id="ah" x2="0" y1="119.59" y2="102.74" gradientUnits="userSpaceOnUse">
   <stop stop-color="#fdcdb8" offset="0"/>
   <stop stop-color="#988a74" offset="1"/>
  </linearGradient>
  <linearGradient id="ag" x2="0" y1="214.72" y2="152.54" gradientUnits="userSpaceOnUse">
   <stop stop-color="#fdcdb8" offset="0"/>
   <stop stop-color="#988a74" offset="1"/>
  </linearGradient>
  <linearGradient id="af" x2="0" y1="207.63" y2="159" gradientUnits="userSpaceOnUse">
   <stop stop-color="#a28963" offset="0"/>
   <stop stop-color="#fff2d0" offset="1"/>
  </linearGradient>
  <linearGradient id="ae" x2="0" y1="233.88" y2="143.71" gradientUnits="userSpaceOnUse">
   <stop stop-color="#a28963" offset="0"/>
   <stop stop-color="#fff2d0" offset="1"/>
  </linearGradient>
  <linearGradient id="ad" x2="0" y1="282.58" y2="192.28" gradientUnits="userSpaceOnUse">
   <stop stop-color="#fff2d0" offset="0"/>
   <stop stop-color="#f0f0f0" offset="1"/>
  </linearGradient>
  <linearGradient id="ab" x2="0" y1="262.61" y2="192.89" gradientUnits="userSpaceOnUse">
   <stop stop-color="#fff2d0" offset="0"/>
   <stop stop-color="#f0f0f0" offset="1"/>
  </linearGradient>
  <linearGradient id="aa" x2="0" y1="204.89" y2="194.5" gradientUnits="userSpaceOnUse">
   <stop stop-color="#fdcdb8" offset="0"/>
   <stop stop-color="#988a74" offset="1"/>
  </linearGradient>
  <linearGradient id="z" x2="0" y1="273.87" y2="262.86" gradientUnits="userSpaceOnUse">
   <stop stop-color="#454545" offset="0"/>
   <stop stop-color="#999" offset="1"/>
  </linearGradient>
  <linearGradient id="y" x2="0" y1="282.58" y2="268.58" gradientUnits="userSpaceOnUse">
   <stop stop-color="#454545" offset="0"/>
   <stop stop-color="#999" offset="1"/>
  </linearGradient>
  <linearGradient id="x" x2="0" y1="285.31" y2="273.12" gradientUnits="userSpaceOnUse">
   <stop stop-color="#454545" offset="0"/>
   <stop stop-color="#999" offset="1"/>
  </linearGradient>
  <linearGradient id="w" x2="0" y1="291.16" y2="282.02" gradientUnits="userSpaceOnUse">
   <stop stop-color="#454545" offset="0"/>
   <stop stop-color="#999" offset="1"/>
  </linearGradient>
  <linearGradient id="v" x2="0" y1="292.96" y2="282.76" gradientUnits="userSpaceOnUse">
   <stop stop-color="#454545" offset="0"/>
   <stop stop-color="#999" offset="1"/>
  </linearGradient>
  <linearGradient id="u" x2="0" y1="297.07" y2="285.56" gradientUnits="userSpaceOnUse">
   <stop stop-color="#454545" offset="0"/>
   <stop stop-color="#999" offset="1"/>
  </linearGradient>
  <linearGradient id="t" x2="0" y1="298.94" y2="287.86" gradientUnits="userSpaceOnUse">
   <stop stop-color="#454545" offset="0"/>
   <stop stop-color="#999" offset="1"/>
  </linearGradient>
  <linearGradient id="s" x2="0" y1="52.413" y2="49.95" gradientUnits="userSpaceOnUse">
   <stop stop-color="#fff2d0" offset="0"/>
   <stop stop-color="#fff" offset="1"/>
  </linearGradient>
  <linearGradient id="q" x2="0" y1="52.637" y2="50.105" gradientUnits="userSpaceOnUse">
   <stop stop-color="#fff2d0" offset="0"/>
   <stop stop-color="#fff" offset="1"/>
  </linearGradient>
  <linearGradient id="p" x2="0" y1="290.85" y2="7.3239" gradientUnits="userSpaceOnUse">
   <stop stop-color="#fff" offset="0"/>
   <stop stop-color="#fff" offset="1"/>
  </linearGradient>
  <linearGradient id="o" x2="0" y1="159.6" y2="55.405" gradientUnits="userSpaceOnUse">
   <stop offset="0"/>
   <stop offset="1"/>
  </linearGradient>
  <linearGradient id="n" x2="0" y1="270.26" y2="257.76" gradientUnits="userSpaceOnUse">
   <stop stop-color="#454545" offset="0"/>
   <stop stop-color="#999" offset="1"/>
  </linearGradient>
  <linearGradient id="m" x2="0" y1="186.67" y2="85.012" gradientUnits="userSpaceOnUse">
   <stop offset="0"/>
   <stop offset="1"/>
  </linearGradient>
  <linearGradient id="l" x2="0" y1="129.01" y2="59.665" gradientUnits="userSpaceOnUse">
   <stop offset="0"/>
   <stop offset="1"/>
  </linearGradient>
  <linearGradient id="k" x2="0" y1="102.83" y2="26.668" gradientUnits="userSpaceOnUse">
   <stop offset="0"/>
   <stop offset="1"/>
  </linearGradient>
  <linearGradient id="j" x2="0" y1="174.65" y2="155.67" gradientUnits="userSpaceOnUse">
   <stop offset="0"/>
   <stop offset="1"/>
  </linearGradient>
  <linearGradient id="i" x2="0" y1="203.88" y2="192.81" gradientUnits="userSpaceOnUse">
   <stop stop-color="#a28963" offset="0"/>
   <stop stop-color="#fff2d0" offset="1"/>
  </linearGradient>
  <linearGradient id="h" x2="0" y1="233.69" y2="132.79" gradientUnits="userSpaceOnUse">
   <stop stop-color="#a28963" offset="0"/>
   <stop stop-color="#fff2d0" offset="1"/>
  </linearGradient>
 </defs>
 <g fill-rule="evenodd">
  <path d="m363.34,180.73c-1.767-1.768-4.38-2.844-4.227-6.532 10.99-24.438 5.996-54.485 2.46-79.767-2.46,0-1.229,6.455-1.229,9.375 1.844,17.061 2.383,36.964-3.459,53.41-9.605,20.979 6.225,28.971-3.073,45.801-14.063,44.418-1.92,51.949-5.688,54.253-8.913.923-.92,16.907-7.606,25.668-.306,3.534-8.376,4.61-17.828,3.841-1.768-.613-2.843-2.688-3.382-3.917-2.996,0-6.454,2.459-7.607,0-.231-3.766 7.686-15.984 10.451-17.445 .308-3.765 0-4.226.922-7.377 1.691-5.687 13.371-36.81 2.612-54.484-1.075,0-8.915,22.438-8.915,27.511-.69,11.065-4.456,20.058-6.99,21.056-13.68-5.073-6.532,34.657-35.044,19.211-2.383-1.768-3.612,1.001-5.993-.768 .613-8.915 8.762-16.061 18.597-23.977 12.14-15.906 12.218-32.123 12.218-32.123-7.992,6.917-3.764-12.988-8.76-13.14-1.153-.615-10.912-2.229-12.68-3.382-1.385,3.92-2.229,5.456-3.306,6.764-7.068,4.61-3.688-7.531-3.688-11.066-4.15-4.688-6.606-10.221-7.531-16.599-25.128,5.763-72.391-6.532-76.386-.462-.23,11.067-9.76,11.067-12.143,18.751-3.458,12.296 4.381,26.667-.307,39.04-6.609,17.443-1.075,31.045-.384,44.264-.77,3.38-3.92,2.304-4.534,4.842-.691,2.689 1.46,8.3.307,12.295-6.455,3.611-15.753,7.147-22.287,1.23-2.919-1.768-5.302,2.381-7.07.615-1.152-1.23-1.152-2.999-1.152-4.151-7.686-1.689-14.677,3.843-20.672-3.535 1.152-3.919 4.918-8.146 8.607-9.607-3.227-3.457 1.306-6.685 4.609-17.981 2.23-14.294.385-14.524-1.305-20.441-4.074-5.995-2.382-20.134-8.607-41.343-9.376,1.843-18.674-3.613-25.053-8.3-10.681-6.609-10.298-36.35-18.367-44.189-4.918-3.688.308-21.363-4.38-27.818-6.455,1.153-10.681,1.459-16.368-1.307-.077-.075-6.608-3.15-5.379-12.218 2.92-9.991-2.306-20.364-6.301-27.972-1.23-4.151-.845-6.764-1.459-10.221-.538-2.999-3.075-4.38-4.15-6.071 .384-1.153 2.459-5.688 1.383-6.301-2.075-.615-3.535-3.613-2.459-8.455-1.768-.691-3.458,2.075-3.996.922 4.226-3.15 5.072-2.15 2.92-9.681-1.153-4.841-12.372,4.839-17.675,1.92-6.993-4.765-6.993-5.842-17.675-14.755-3.305-2.767-7.531-5.917 5.994-9.376 25.668.077 26.667-3.764 31.354,3.229 4.073-2.921 13.986-10.068 12.987-16.446 2.076-3.611 4.226-1.459 5.917.229 2.767-6.376 3.382-1.459 6.609-1.92 15.988-4.053 24.902-1.055 26.899,2.404 2.537.999 1.691,1.843 1.691,3.381 3.381,1.228 1.691,0 3.381,2.075 6.148,1.305 12.142,4.303 14.525,5.994 10.605-3.459 22.286,3.073 32.275,8.298 .539,1.076-.615,2.613-.153,4.458 7.07,1.153 17.52,4.764 25.206,6.532 7.224,2.229 28.818-7.531 44.649-7.531 14.14-.615 25.282,2.075 39.961.307 13.522-3.611 31.967-17.136 44.032-9.067 11.221-4.149 23.592-10.605 35.889-12.295 1.766-.615 5.302-.615 7.685.538 2.843,1.768 5.839,5.84 8.836,9.375 4.074.691 9.3,3.535 11.144,8.76 15.216,41.806 12.142,73.774 9.376,121.96 0,2.383.537,18.214.077,21.749-.538,4.458 7.837,4.918 1.69,21.978 2.151,4.918 5.302,6.532 3.995,10.683-.998,3.15-2.92,2.919-3.687,3.15 1.997,4.072-1.385,4.533-3.382,6.993-3.459,5.073 1.228,7.916-1.923,18.904-.998,5.84 2.921,10.604-4.456,14.908 7.606-12.218-.77-2.535.845-21.517-3.073,6.841-.537,14.295-2.844,11.682-2.304-2.691-4.073-16.446-1.921-25.975-1.921-3.306-3.074-8.532 3.381-17.676-1.78-4.13-.02-7.05-.02-11.13z" fill="url(#ac)"/>
  <path d="m146.94 230.22c13.986 14.293 8.53 42.035 2.381 44.723-1.613-4.61-1.921-5.609 1.691-6.607 1.39-6.98-6.3-22.12-4.07-38.11z" fill="url(#r)"/>
  <path d="m85.31,115.87c0-2.306 0-4.687-2.382-5.225-1.767-1.845 1.153-4.689 2.92-5.917 .692-6.071-10.759,4.456-11.451-4.689-8.145-.69-6.148-4.687-6.686-5.302-1.229-.538-1.844-.69-3.766-.307-2.92,1.768-3.919,5.608-6.224,7.992-.615,2.92 4.61,5.839 0,7.069-.615.539-.615.539-1.23,1.691-.538,1.768 3.535,4.687 2.381,5.917-4.148-1.768-4.148-6.455-4.148-10.066 1.767-12.297 7.069-25.207 2.997-37.502v-4.228c2.92-6.376-.615-12.832 0-19.363-1.23-3.459-3.535-5.765-3.535-8.761-2.998-4.689-8.223-1.768-11.221-4.074-.538-.615-1.076-3.459-1.613-4.072 1.076-8.761-29.817-11.682-18.136-5.304-12.986-5.975-17.827-1.826-18.98,1.17-1.153-.613-2.536-.922-3.151-2.688 2.152-2.998 6.532-4.228 8.992-4.228 20.671.461 21.287-2.383 26.128-.229 2.152,1.305 2.612,4.149 6.225,3.611 4.764-4.689 12.218-10.758 11.911-17.061 1.692-3.38 3.383.615 5.149.615 1.153-.615 1.153-2.381 2.843-2.381 4.611,2.612 19.52-5.073 28.741,1.151 .691,2.383 3.996,1.23 1.614,4.689 3.919.846 2.843,1.614 3.458,3.766 3.765.461 4.38,6.839 6.763,7.992 5.226,1.768 9.76-4.149 16.215-3.688 8.53.692 15.984,5.379 23.9,8.3-.692,5.608-5.303,6.532-6.456,7.07 3.229-4.074.691-4.149-1.614-5.379 6.378-7.379-19.596-2.077-20.979-3.536-1.383-1.766 12.988-2.844 6.225-4.304-7.608,1.153-15.523,5.688-20.288,11.528-1.076,2.996 4.765,1.768 5.379,4.687-2.997,3.611-8.837-.615-12.372,2.383-6.455,5.302-8.606,13.064-9.76,21.286 5.225,8.761-.23,20.441.923,31.585 1.229,5.84 2.997,11.757 4.687,17.597v4.689c-.537,1.77-2.305,1.77-3.458,3.53z" fill="url(#g)"/>
  <path d="m76.934,74.377c-3.381,6.916-4.918-3.997-9.222-.231-4.765-9.375-5.917-9.145-3.766-16.138 1.691-5.303-5.994-5.995-4.457-20.21-2.382-8.761.308-7.916-6.378-10.912-5.456-2.306-3.688-3.69-.922-7.454-5.303-.386 2.229-9.605 4.304-11.604 2.305-2.306 1.151,6.916 2.997,5.839 5.533-3.15 5.533,6.378 7.915,3.459 1.153-1.845 2.844-5.611 3.766-7.686 1.768-4.304 3.919,2.69 4.919,1.076 2.535-4.072 7.454-1.768 6.224,3.536-.46,7.531 6.456-3.919 10.605-.923 3.688,4.226-2.382,9.376-4.15,13.448 6.302-.152-1.076,5.227-2.843,7.533 8.069.844 2.306,5.84 0,7.915-2.537,6.532-9.607,1.075-8.992,32.352z" fill="url(#f)"/>
  <path d="m111.44 17.126c-10.451 6.378-7.837-3.074-13.754-5.995 9.374 1.691 10.834 4.15 13.754 5.995z" fill="url(#e)"/>
  <path d="m259.6 27.807c9.991-2.921 26.514-14.217 37.81-8.223-11.14 3.536-26.05 7.608-37.81 8.223z" fill="url(#d)"/>
  <path d="m25.984,26.654c.461-2.306-9.375-7.454.845-5.07-.845,7.222 6.917,3.15 8.53,7.683 1.767,2.921-2.535,1.691-4.611,2.077 9.76,2.612-1.998,10.066-8.837,9.374-3.382-1.229-11.834-10.913-16.598-13.832 2.074-10.452 16.598-3.691 20.671-.232z" fill="url(#c)"/>
  <path d="m133.72,25.349c-3.689,3.226 4.611,2.767 2.843,4.765-7.224,8.529-20.134,13.525-24.207,2.996-2.151-3.459 9.452,1.23 2.537-8.53 5.302.538 7.607-1.922 8.53,0 6.38,0 13.46-2.075 10.3.769z" fill="url(#b)"/>
  <path d="m54.571,53.936c-5.995,0-.615-5.533-13.448-7.915-.538-1.768 1.076-6.917 3.381-7.993 1.229,0 4.304-3.303 6.686-1.537 1.921,6.148 7.684,8.915 3.381,17.445z" fill="url(#a)"/>
  <path d="m93.994,38.643c3.996-3.918 9.76.999 8.992,3.382-.923,3.766 3.612,5.071.844,6.146-4.302,1.539-3.304-5.763-13.909,1.076-4.688,1.076-2.305,7.916-4.611,7.916 0-7.608 1.383-11.527 8.684-18.52z" fill="url(#am)"/>
  <path d="m365.96,43.716c2.842,16.367 8.375,53.254 5.226,82.302-1.691-13.601-1.921,21.441-3.459-10.605-.69,6.61-.69,23.131-1.307,21.363 0-20.518-3.229-44.879-5.839-45.494 1.84-8.84 4.22-38.81 5.38-47.57z" fill="url(#al)"/>
  <path d="m51.344,53.936c5.994,5.379 3.919,9.605 4.534,15.6 2.612,7.992 2.767,10.681-.615,28.279-.615.615-1.537-11.834-5.226-16.982-4.842-7.07 1.461-11.296-6.762-18.904 0-.615.614-3.382.614-4.61 1.768-.387 5.764.689 7.455-3.383z" fill="url(#ak)"/>
  <path d="m100.22,56.165c1.844,5.302-4.073,13.063-2.152,16.521-1.921,4.689-7.916,15.832-10.451,26.205-6.225-14.293 2.305-25.36-1.691-39.344-.845-1.691 2.075-1.538 2.689-5.458 3.227,1.307 5.533,5.457 11.605,2.076z" fill="url(#aj)"/>
  <path d="m66.252,95.509c0,5.149 5.532,3.69 6.839,5.381s-1.307,4.996 7.069,3.534c-6.225,4.227-12.757,4.918-19.596-1.92 .616-2.22 2.999-8.065 5.688-6.991z" fill="url(#ai)"/>
  <path d="m76.549,117.1c-6.916,7.377-23.822-3.766-17.521-6.917 2.689-.999 1.691,5.456 5.917,4.611 2.537-.69 1.922-4.38-.538-5.456-2.458-1.151-7.454-4.458-4.918-6.61 4.918,6.226 9.99,8.224 14.678,6.456 1.768,0 3.842-2.613 7.915-3.841-1.306,3.996-7.761,3.841-8.146,6.994 .846,2.919 1.998,2.612 3.305,2.381 1.46-.231 2.459-4.919 5.225-3.843 4.535,6-1.536,4.85-5.917,6.23z" fill="url(#ah)"/>
  <path d="m307.56,152.53c15.829,0 6.531,19.365 15.445,34.89 2.535,5.071-2.689,5.071-3.15,7.225 3.073,15.138-1,10.988-2.229,10.988-1.691-2.306-2.228-8.992-6.303-8.992-4.381,2.306-8.454,2.614-11.527,3.458-.999,6.071 1.537,13.756-3.15,14.601-4.072-4.458.309-9.606-3.535-15.062-12.295-1.23-24.668-7.992-26.512-20.902 15.37-3 29.9-11.53 40.97-26.21z" fill="url(#ag)"/>
  <path d="m360.73,207.63c-2.922-8.76 3.303-13.909 4.227-17.598-1.615-2.383-.769-6.149.768-9.299-5.688-4.612-6.455-3.688-.768-21.748-3.536,19.442-2.306,16.139-.692,17.751 7.223,2.844.922,7.608.922,8.607 1.229,3.997-.692,9.76-3.766,15.677-.46,3.84 3.31,3.84-.69,6.61z" fill="url(#af)"/>
  <path d="m369.11,143.69c4.993,18.596-2.229,27.204 4.765,32.428 3.766,5.15-4.765,16.755-2.613,21.364 4.842,10.913-5.379,2.46-3.15,24.899 .922,5.84-1.691,4.533-.769,11.451-2.458-4.226.076-5.534-.847-9.299-.921-3.765-1.843-12.987.923-17.445 6.456-6.3 0-8.221 2.075-14.524 1.997-6.224 4.381-9.298 3.074-13.371-5.54-8.99-2-23.59-3.46-35.5z" fill="url(#ae)"/>
  <path d="m131.11,282.17c-6.071-9.913 2.459-3.688 3.535-31.508 0-4.61-3.765-9.758-5.073-14.985-1.152-11.142-1.152-26.051-4.687-35.426 7.991-.692 5.302-6.532 16.213-7.992 1.769-.615 1.153,2.842 2.998,4.61 1.075,9.453 1.691,22.438 2.229,32.43-7.3,9.376 6.302,36.81-.307,39.729 .614,5.302 2.921,9.376-1.768,13.525-4.14-1.16-1.91-3.62-13.13-.39z" fill="url(#ad)"/>
  <path d="m319.69,196.49c.538,0 1.768-2.458 3.689-3.611 1.152,3.073 1.69,4.226 1.768,6.224-13.68,27.588-11.065,43.649-14.755,49.795-2.307,2.921-4.994-.997-8.146,4.766-2.382,4.61-2.998,2.537-5.224,7.839-3.382-.615-13.451-.154-17.986,1.074-.613-1.228 1.153-3.151 0-5.84 1.462-3.689 4.767-5.995 9.3-8.299 5.381-7.531 10.298-14.987 17.215-47.723 1.999-.768 4.609-1.69 6.225-2.306 2.996,3.612 1.459,9.605 6.916,8.53 3.07-1 1.61-5.76.99-10.45z" fill="url(#ab)"/>
  <path d="m271.9,194.49c1.69.615 6.147,4.766 2.152,9.836-4.15,2.69-2.69-5.61-2.15-9.84z" fill="url(#aa)"/>
  <path d="m279.73,264.27c1.846-2.074 12.527-1.382 17.294-1.23-2.615,16.678-16.063,9.608-20.137,7.917 .16-2.54-.53-1.78 2.85-6.69z" fill="url(#z)"/>
  <path d="m320.7,268.57c5.302.847-1.923,6.071-2.384,12.987-.537,0-4.842.461-5.455.999-.62-2.85 5.99-11.15 7.84-13.99z" fill="url(#y)"/>
  <path d="m340.06,273.26c-.616.615-1.769,1.766-1.151,2.919 2.381,9.991-4.459,8.916-16.833,9.146-.613-4.766 1.385-8.992 4.306-10.683 2.84-.01 2.76-2.31 13.67-1.39z" fill="url(#x)"/>
  <path d="m130.04,282.56c-2.075,3.844-4.612,5.61-6.302,8.608-3.382-.538-2.459-.846-3.612-1.384 2.22-2.85 5.6-9.92 9.91-7.23z" fill="url(#w)"/>
  <path d="m132.03,283.56c6.147-2.382 9.145.999 12.372,1.844-2.997,2.383-4.227,3.688-5.225,7.377-5.841-1.843-11.757,1-15.292,0 2.92-2.08 5.61-9.15 8.14-9.22z" fill="url(#v)"/>
  <path d="m152.01,286.55c-2.306,5.917-2.306,10.835-5.994,8.3-8.223,7.299-3.919-5.073.307-9.299 2.99,1.31 2.38,0 5.68,1z" fill="url(#u)"/>
  <path d="m168.23,293.78c-4.381,5.302-13.525,7.608-17.829,1.691 1.999-1.845 3.997-3.919 5.226-7.608 2.07.92 7.68,1.84 12.6,5.92z" fill="url(#t)"/>
  <path d="m96.684,49.939c1.459.615 2.305,1.076 2.459,1.537 .153.385-.23.692-1.459.923-1.078.307-2.537-3.152-1-2.46z" fill="url(#s)"/>
  <path d="m46.272,50.094c1.536.691 2.382,1.152 2.536,1.537 .154.46-.307.769-1.459.999-1.077.228-2.615-3.151-1.077-2.536z" fill="url(#q)"/>
  <path d="m364.19,54.166c-4.765,0-12.758,82.611-10.375,100.29-1.153,3.534-1.385,9.528-3.15,13.064-1.153,17.751 7.299,18.212 3.15,29.969-5.533,14.985-12.679,39.269-7.53,57.022-1.153,1.843-5.611,6.07-5.148,8.914-.922,2.383.152,3.228-.463,7.915-4.149,0-9.375.692-14.063,1.308-2.381.615-1.767-4.074-3.534-4.688h-.614c4.148-4.074 0-8.223 3.535-12.295 8.837-21.748 7.686-50.489-2.921-70.47-1.228-1.845-1.768-3.536-1.768-5.379-3.534-10.529 0-22.901-3.534-32.2-2.381-1.153-3.688-5.148-12.142,4.458-28.973,32.046-66.089,26.052-92.833,22.747-6.532-.844-21.364-3.15-26.896,1.076 0-6.455.77-15.677 5.687-19.059 10.146-6.532 17.214,17.676 48.031,17.676-.309-.385.307-.769-1.076-.923-27.281.923-37.273-25.128-48.186-17.366-7.529,6.455-5.224,17.136-6.454,25.975-1.153,5.302-8.761,6.453-10.528,11.219-5.302,12.91 5.918,30.968-1.075,43.956-5.609,13.986 4.457,40.192-3.382,44.725-2.458,1.384-1.69,6.378-1.69,8.761-5.917-3.536-5.38-3.997-13.524-3.997-1.999-3.995-6.917-1.535-6.303-3.303 1.999-12.603 11.221-.308 8.376-39.039-.613-5.302-4.148-9.991-6.455-14.37-5.609-10.222 6.609-40.577-13.216-56.407-3.305,0 7.991,6.993 7.684,16.292-4.995.999-9.145.384-11.527,2.767-10.605,8.221-25.821,7.606-34.044-1.768-11.296-7.378-10.374-37.809-18.289-43.342-3.611-2.613-1.229-16.983-3.611-28.202 19.75-.54 14.062-11.759 12.603-18.214 4.226-17.291 7.531-17.291 11.834-28.51-1.229-3.304 2.766-9.991.384-15.139 .538-1.768 1.845-3.536 2.229-7.07 2.767,0 7.377,4.072 3.766.692-.538,0-2.229-2.383-2.229-2.383 3.534-1.768-2.997-3.688-.231-9.912 2.153-4.841 11.143,7.608 18.751,4.149 7.685-2.458 13.525-9.991 21.209-13.525 9.991,1.153 18.828,7.608 29.972,7.608 5.532.845 26.742-9.067 53.332-7.533 24.744,4.228 48.797,2.537 96.904-19.595 19.827-6.532 16.751-.538 24.514,5.763-6.454.54-9.143,3.536-13.37,7.07-1.46-6.53-13.604.231-11.065,2.152 19.594,1.076 14.292-11.68 29.893-5.917 9.82,4.757 9.36,22.125 9.36,35.036z" fill="url(#p)"/>
  <path d="m363.42,55.396c-1.385,17.906-3.229,29.663-4.917,37.655 .845,15.063 3.688,46.109-3.767,61.863-34.427,20.287-16.751-31.2-8.913-27.974 6.147-10.296-7.993-5.147 1.92-25.666-5.68-37.113 6.77-44.029 15.68-45.874z" fill="url(#o)"/>
  <path d="m277.58,257.73c2.459-1.153-2.381,9.685-4.995,9.685-.613,0-1.998,2.227-2.535,2.842-.53-2.92 3.86-8.07 7.54-12.53z" fill="url(#n)"/>
  <path d="m239.62,174.51c9.528.69 28.816,1.844 37.578-15.831 5.916-7.07 15.369-14.601 11.219-23.978-6.224-10.527 3.766-9.683 9.299-13.679 21.594-16.138 11.297-57.25-20.98-66.703-5.839-1.462 1-7.761-4.149-7.915-7.685,0-16.061,1.537-21.979,5.534-13.602,7.222-7.378-8.686-42.649.538-7.454,2.381-7.07,8.836-5.303,12.295 2.384,7.145 12.295,8.222 14.754,15.369-1.229,12.833 3.459,28.204-.999,35.426-5.992,9.685-1.536,11.912 2.151,15.602 8.762,8.221 1.23,18.75 2.307,32.275 .61,7.69 7.99,2.77 18.75,11.07z"/>
  <path d="m77.779,123.64c15.447-5.15 17.368,67.317 44.111,63.014 12.603-5.994 4.073-6.993 5.379-11.526 1.613-6.686 3.996-1.078 8.299-7.994 2.768-4.533-15.907-1.998-16.214-7.837 4.611-18.214 24.821-8.838 27.128-12.22 4.303-9.605-1.076-32.122-11.221-30.431-2.382-8.992 17.828-34.658-5.917-31.354-16.291,3.919-9.99,26.358-19.98,17.137-6.532-4.996-18.29,7.608-18.75-8.223-.154.999-1.923,4.841-2.153,6.84 1.308,5.686 3.228,7.606.846,13.984-2.997,2.998-10.451,4.92-12.986,4.074 .299,1.39.76,3.09 1.452,4.55z" fill="url(#m)"/>
  <path d="m168.69,60.083c15.831-3.534 23.977,13.525 38.654,15.293 1.229,2.304 5.072,8.223 1.46,14.14-1.612,2.689 18.366,14.447-5.687,32.044-4.303,6.609-7.225,13.295-18.059-.615-6.993-9.605 7.07-37.347-11.682-45.569-15.75-5.681-7.6-14.058-4.68-15.288z" fill="url(#l)"/>
  <path d="m306.02,27.807c17.676,9.991 1.23,22.593 30.509,52.871 4.535,3.768-7.454,21.671-13.448,22.134-7.991-.54-2.381-9.376-7.683-18.599-13.373-10.066-5.305-37.04-18.753-35.195-21.056,2.613-15.982-9.453-19.828-11.834-4.685-2.998-14.138.69-11.294-2.383 2.919-2.919 8.067.383 10.527-4.072 13.82,7.147 17.51-8.376 29.96-2.92z" fill="url(#k)"/>
  <path d="m144.64 156.37c10.067-3.843 1.077 8.761 9.452 15.831-4.07 9.46-20.6-11.37-9.45-15.83z" fill="url(#j)"/>
  <path d="m373.64,192.8c1.075,4.226 6.377,8.299-.155,11.065-1.38-3.76 4.24.39.16-11.06z" fill="url(#i)"/>
  <path d="m367.8,132.78c2.536,19.213-4.072,41.346 2.996,46.418 3.768,5.147-6.763,13.909-4.61,18.521 4.841,10.758-5.303,2.381-3.074,24.667 .848,5.686-1.69,4.38-.769,11.296-2.535-4.149.078-5.456-.844-9.145-.922-3.843-1.921-12.987.922-17.368 6.454-6.226.614-7.3 2.536-13.448 2.075-6.224 7.146-9.068 3.457-15.139-6.01-9.83.83-33.89-.63-45.8z" fill="url(#h)"/>
 </g>
</svg>
