<?xml version="1.0" encoding="UTF-8"?>
<!DOCTYPE svg  PUBLIC '-//W3C//DTD SVG 1.1//EN'  'http://www.w3.org/Graphics/SVG/1.1/DTD/svg11.dtd'>
<svg width="259.36px" height="316.12px" enable-background="new 0 0 259.355 316.115" version="1.1" viewBox="0 0 259.355 316.115" xml:space="preserve" xmlns="http://www.w3.org/2000/svg">
<linearGradient id="bz" x1="411.6" x2="375.94" y1="779.91" y2="775.63" gradientTransform="translate(-311.86 -558.92)" gradientUnits="userSpaceOnUse">
	<stop stop-color="#C2DEE5" offset="0"/>
	<stop stop-color="#010101" offset="1"/>
</linearGradient>
<path d="m126.86 210.91c0.074 10.284-21.463 43.438-33.934 52.988-12.64 1.474-31.727 18.194-31.727 18.194-6.767-15.56 3.342-51.435 6.32-67.025 3.042-15.914 16.057-56.761 15.075-57.807 0 0 16.147-14.076 34.476 19.741" enable-background="new    " fill="url(#bz)" opacity=".64"/>
<linearGradient id="av" x1="403.5" x2="361.5" y1="628.01" y2="614.33" gradientTransform="translate(-311.86 -558.92)" gradientUnits="userSpaceOnUse">
	<stop stop-color="#C2DEE5" offset="0"/>
	<stop stop-color="#010101" offset="1"/>
</linearGradient>
<path d="m60.371 9.296c5.422 4.433 7.83 32.52 3.618 41.183-4.167 8.581-22.054 38.163 23.94 65.409 44.287 26.234 44.091-30.79 41.595-45.044-2.54-14.508 5.074-24.575-69.153-61.548z" enable-background="new    " fill="url(#av)" opacity=".64"/>
<radialGradient id="bg" cx="-350.84" cy="890.44" r="158.03" gradientTransform="matrix(-.7873 -.0547 -.057 .7556 -80.222 -521.21)" gradientUnits="userSpaceOnUse">
	<stop stop-color="#C2DEE5" offset="0"/>
	<stop offset="1"/>
</radialGradient>
<path d="m134.25 261.06c-3.958 1.855-18.473 11.018-28.121 14.209-9.617 3.181-65.989 22.922-65.989 22.922 17.419-10.722 65.353-24.371 73.169-28.591 7.855-4.242 19.702-14.905 34.165-24.301 7.013-4.556 13.095-11.471 17.548-17.462-6.851 6.536-15.02 12.706-17.867 14.36-4.6 2.671-12.837 9.502-12.837 9.502s8.552-8.176 12.233-11.002c3.749-2.879 15.888-11.958 22.478-21.064-15.708 14.354-29.862 11.098-29.862 11.098-7.138 7.735-41.548 32.8-48.251 33.808-6.696 1.008-29.713 17.557-29.713 17.557s13.655-13.575 27.536-18.62c5.076-1.845 9.866-7.187 13.768-13.802-5.304 4.88-11.004 8.154-15.503 10.414-9.245 4.643-26.195 17.281-26.195 17.281s19.844-16.248 25.188-19.909c2.575-1.763 15.277-6.775 23.973-28.075-6.052 7.665-17.939 21.828-26.186 25.88-11.361 5.577-23.284 16.309-23.284 16.309s11.541-12.449 20.788-17.692c4.99-2.832 23.798-18.788 30.653-35.932-0.015-0.206-0.035-0.403-0.057-0.602-3.878 6.858-11.348 16.638-17.903 21.59-7.563 5.71-18.66 13.003-24.434 17.941 4.121-3.882 12.441-11.496 20.737-17.751 3.728-2.81 13.468-12.17 20.136-27.342-0.115-0.34-0.238-0.695-0.364-1.057-5.883 9.111-18.407 23.477-25.087 26.401-8.234 3.604-14.585 9.794-14.975 10.181 0.403-0.402 9.251-9.121 13.682-11.76 3.868-2.309 15.402-12.07 22.781-26.063-6.933 7.146-17.672 17.398-21.478 19.221-5.491 2.628-15.429 9.409-15.429 9.409s12.633-9.411 15.368-11.171c2.316-1.487 15.45-14.929 20.948-23.132-6.208 6.253-16.62 16.285-22.034 18.908-7.958 3.855-13.082 7.696-13.082 7.696s9.644-7.768 13.018-9.473c2.832-1.433 16.543-15.967 21.664-22.58-0.031-0.084-0.065-0.168-0.097-0.25-6.367 5.768-16.399 14.769-19.273 16.855-4.274 3.104-14.963 9.339-14.963 9.339s12.119-9.945 13.653-10.971c1.287-0.863 13.563-13.926 18.777-19.797-0.274-0.689-0.552-1.383-0.83-2.079-5.072 4.907-14.815 14.16-19.066 16.972-5.836 3.858-10.723 7.206-10.723 7.206s10.035-8.782 12.178-10.657c1.729-1.514 11.824-12.184 16.383-16.566-0.644-1.591-1.29-3.177-1.933-4.742-4.637 5.556-15.402 17.649-25.736 23.397 0 0 19.008-19.354 24.833-25.592-0.593-1.441-1.178-2.855-1.746-4.223-6.064 5.494-22.137 19.976-24.403 21.212 0 0 18.169-17.791 23.369-23.688-0.607-1.448-1.187-2.826-1.734-4.117-3.891 4.158-12.298 13.072-14.201 14.516l12.831-17.731c-0.588-1.372-1.112-2.582-1.55-3.581-2.313 2.304-8.58 8.496-10.11 9.602 0 0 6.322-7.585 9.215-11.607-0.185-0.402-0.331-0.714-0.427-0.9-1.749-3.428-5.739-4.856-9.291-2.997-3.543 1.856-29.961 40.119-64.675 36.648 14.354-1.694 25.788-7.689 34.311-14.708-11.755 4.925-24.436 6.55-30.414 4.204 18.043-2.229 30.678-7.603 38.812-12.406 0.975-1.131 1.877-2.254 2.71-3.359-10.792 4.791-26.792 7.517-39.728 5.377 20.202-0.546 36.215-7.951 44.328-12.57 0.408-0.778 0.778-1.53 1.09-2.243-20.534 10.3-45.668 2.778-45.668 2.778 24.98-0.278 40.212-5.068 47.199-7.965 0-0.016 4e-3 -0.033 6e-3 -0.046 0.014-0.203 0.027-0.416 0.043-0.631-20.859 5.996-48.44 1.47-48.44 1.47 16.292 1.074 40.326-5.219 48.884-7.651 0.011-0.152 0.021-0.305 0.031-0.458-28.385 3.861-49.564-4.926-49.564-4.926 11.265 3.681 39.278 1.783 49.426 0.94-12.53-0.949-49.857-6.613-49.857-6.613 13.097 0.614 38.776 1.22 50.395 2.459 3e-3 -0.134 0.011-0.269 0.013-0.404-11.325-2.974-51.492-8.917-51.492-8.917 13.198-0.297 38.859 2.091 51.152 3.282-13-5.729-54.29-16.86-54.29-16.86 12.676 0.375 44.46 9.109 54.486 11.946-0.033-0.532-0.069-1.063-0.112-1.593-12.474-8.054-54.688-27.79-54.688-27.79 23.119 3.58 45.155 16.785 54.113 22.71-0.079-0.521-0.166-1.04-0.26-1.552-17.004-15.294-50.928-32.264-50.928-32.264 21.019 6.332 39.336 15.387 49.304 25.924-0.349-0.997-0.733-1.955-1.168-2.854-6.03-12.491-43.295-30.792-50.173-29.858 0 0 6.298-4.219 25.994 5.673 19.423 9.755 36.996 31.532 42.669 29.823 2.227-0.67 3.544-2.957 4.458-5.447-4.418-1.407-9.247-3.659-9.247-3.659l9.892 1.692c0.058-0.194 0.114-0.386 0.168-0.579-5.831-2.188-15.308-6.206-15.308-6.206 3.459 0.918 11.718 2.775 15.995 3.726 0.028-0.093 0.054-0.191 0.08-0.28 5e-3 -0.015 9e-3 -0.03 0.014-0.045-9.28-3.598-23.896-11.956-23.896-11.956 3.173 1.708 17.813 7.004 24.601 9.429 0.038-0.142 0.077-0.285 0.113-0.426-10.363-5.543-29.239-18.646-29.239-18.646 10.845 6.107 24.143 13.064 29.937 16.07 0.036-0.134 0.073-0.268 0.109-0.402-11.448-7.96-31.614-24.06-33.457-25.534 2.821 2.194 25.988 17.708 34.164 23.063 0.052-0.171 0.102-0.341 0.154-0.512-8.41-7.487-33.478-30.773-33.478-30.773 4.014 3.088 26.11 20.653 34.619 27.422 0.248-0.647 0.51-1.283 0.791-1.906-8.691-8.149-31.83-30.472-31.83-30.472 4.511 3.685 24.718 20.938 33.047 28.056 0.149-0.261 0.306-0.516 0.462-0.768-8.383-9.909-29.644-34.059-29.644-34.059 7.346 6.075 24.36 24.349 31.178 31.754 0.149-0.217 0.298-0.438 0.448-0.656-7.822-11.333-28.032-36.858-28.032-36.858 7.646 6.444 23.302 26.518 29.508 34.623 0.226-0.361 0.445-0.727 0.655-1.097-6.923-12.987-27.968-39.876-27.968-39.876 6.076 5.213 23.04 28.019 29.416 36.703 0.124-0.361 0.249-0.72 0.346-1.096 0.093-0.357 0.179-0.709 0.265-1.064-7.956-18.994-31.407-42.901-31.407-42.901 15.896 13.097 25.378 25.189 30.254 32.42-10.367-28.161-35.774-46.32-35.774-46.32 20.929 13.801 31.898 25.638 37.615 35.736-0.313-1.443-0.701-2.92-1.187-4.45-0.989-3.109-2.59-6.909-4.701-9.506-5.239-6.445-10.857-11.006-17.621-14.831-1.979-1.119-6.865-6.206-8.791-7.905-4.091-3.617-10.432-8.703-10.432-8.703 6.604 2.808 55.385 28.61 73.367 34.678 17.823 6.015 45.045 18.33 61.488 31.648 16.156 13.083 28.144 29.63 30.965 33.092 2.813 3.444 10.537 7.817 16.9 12.001 6.326 4.161 7.747 7.374 4.998 9.063 4.695 3.251-0.484 6.977-3.487 12.602-2.984 5.585-24.998 33.693-27.323 35.327-2.322 1.63-2.416 3.508-5.967 10.938-3.519 7.358-21.307 27.025-22.021 29.646-4.491 16.439-25.031 51.439-118.45 81.792 85.917-35.034 102.92-60.426 110.58-79.65-15.18 25.384-43.199 38.774-47.168 40.629z" fill="url(#bg)"/>
<linearGradient id="bk" x1="364.14" x2="307.88" y1="702.6" y2="692.77" gradientTransform="translate(-311.86 -558.92)" gradientUnits="userSpaceOnUse">
	<stop stop-color="#C2DEE5" offset="0"/>
	<stop stop-color="#010101" offset="1"/>
</linearGradient>
<path d="m15.428 80.039s-7.041 28.87-2.409 53.273c4.495 23.668-5.44 39.804 2.888 61.304 0 0 26.682-0.071 41.244-17.375 14.871-17.672 29.733-34.555 27.015-45.461-2.757-11.059-30.802-47.078-68.738-51.741z" enable-background="new    " fill="url(#bk)" opacity=".64"/>
<radialGradient id="bl" cx="-258.8" cy="895.79" r="70.662" gradientTransform="matrix(-.7873 -.0547 -.057 .7556 -80.222 -521.21)" gradientUnits="userSpaceOnUse">
	<stop stop-color="#233D7B" offset="0"/>
	<stop stop-color="#142E53" offset="1"/>
</radialGradient>
<path d="m50.219 179.91c-11.755 4.926-24.435 6.55-30.414 4.204 18.043-2.23 30.678-7.602 38.812-12.406 0.975-1.131 1.877-2.254 2.71-3.36-10.792 4.791-26.792 7.517-39.727 5.377 20.201-0.544 36.215-7.95 44.328-12.571 0.408-0.775 0.778-1.528 1.089-2.242-20.534 10.301-45.667 2.778-45.667 2.778 24.98-0.278 40.212-5.069 47.198-7.965 1e-3 -0.015 5e-3 -0.032 6e-3 -0.046 0.014-0.203 0.027-0.416 0.043-0.63-20.859 5.996-48.44 1.47-48.44 1.47 16.292 1.073 40.327-5.219 48.884-7.651 0.011-0.152 0.021-0.304 0.032-0.458-28.385 3.86-49.564-4.925-49.564-4.925 11.265 3.68 39.278 1.783 49.425 0.939-5.987-0.454-17.604-1.978-28.129-3.451 1.884-0.575 3.686-1.289 5.376-2.109 9.035 0.371 17.756 0.817 23.291 1.407 4e-3 -0.134 0.011-0.269 0.014-0.404-3.831-1.006-10.948-2.349-18.698-3.688 1.386-0.995 2.509-2.064 3.396-3.321 5.785 0.496 11.051 0.995 14.963 1.374-3.122-1.374-7.864-3.058-13.27-4.823 0.228-0.71 0.424-1.467 0.577-2.294 0.08-0.43 0.169-0.843 0.264-1.245 5.312 1.402 9.817 2.657 12.626 3.452-0.033-0.532-0.069-1.063-0.112-1.594-2.588-1.67-6.441-3.837-10.927-6.223 0.725-1.355 1.633-2.526 2.764-3.588 3.064 1.805 5.634 3.438 7.588 4.731-0.079-0.521-0.165-1.04-0.26-1.552-1.7-1.53-3.573-3.076-5.561-4.62 0.736-0.529 1.541-1.038 2.429-1.533 0.365-0.206 0.75-0.386 1.13-0.569 0.125 0.129 0.254 0.256 0.375 0.386-0.059-0.167-0.123-0.323-0.182-0.483 2.268-1.069 4.755-1.797 7.272-2.309 4.621 3.782 8.186 6.192 10.232 5.577 1.686-0.507 2.849-1.941 3.712-3.688 2.825-1.203 5.67-5.336 8.409-4.26 4.823 1.897 4.107 7.995 1.446 10.171-2.245 1.838-3.583 2.242-4.664 5.238-0.631 1.751-0.917 3.814-1.463 5.659-2.005 6.791-2.501 13.828-3.716 20.831-0.451 2.6-1.136 5.361-1.957 7.984-1.65-0.538-3.517-0.427-5.276 0.496-3.543 1.854-29.961 40.118-64.675 36.647 14.352-1.698 25.787-7.694 34.311-14.713z" enable-background="new    " fill="url(#bl)" opacity=".29"/>
<radialGradient id="bm" cx="-257" cy="896.93" r="68.767" gradientTransform="matrix(-.7873 -.0547 -.057 .7556 -80.222 -521.21)" gradientUnits="userSpaceOnUse">
	<stop stop-color="#233D7B" offset="0"/>
	<stop stop-color="#142E53" offset="1"/>
</radialGradient>
<path d="m50.219 179.91c-11.755 4.926-24.435 6.55-30.414 4.204 18.043-2.23 30.678-7.602 38.812-12.406 0.975-1.131 1.877-2.254 2.71-3.36-10.792 4.791-26.792 7.517-39.727 5.377 20.201-0.544 36.215-7.95 44.328-12.571 0.408-0.775 0.778-1.528 1.089-2.242-20.534 10.301-45.667 2.778-45.667 2.778 24.98-0.278 40.212-5.069 47.198-7.965 1e-3 -0.015 5e-3 -0.032 6e-3 -0.046 0.014-0.203 0.027-0.416 0.043-0.63-20.859 5.996-48.44 1.47-48.44 1.47 16.292 1.073 40.327-5.219 48.884-7.651 0.011-0.152 0.021-0.304 0.032-0.458-28.385 3.86-49.564-4.925-49.564-4.925 11.265 3.68 39.278 1.783 49.425 0.939-3.672-0.279-9.467-0.96-15.829-1.786 2.239-0.678 8.955-0.812 6.083-3.15 3.979 0.231 7.53 0.489 10.284 0.783 4e-3 -0.134 0.011-0.269 0.014-0.404-2.08-0.545-5.127-1.191-8.718-1.881 0.492-0.541 5-0.469 5.428-1.105 0.614-0.564-3.259-2.255-3.199-3.234 2.278 0.211 4.356 0.411 6.149 0.585-1.977-0.871-4.065-1.475-6.014-2.397-5e-3 -0.442 1.666-1.672 2.103-2.012 0.369-0.287 1.786-1.153 2.317-1.004 0.649 0.181 1.257 0.352 1.791 0.503-0.034-0.547-0.062-1.093-0.167-1.635 1.763-0.594-0.362-1.572-1.086-1.977-0.047-0.027-2.778-1.771-1.702-1.961 0.612-0.107 1.542 0.146 2.062-0.18 0.401-0.255 0.434-0.948 0.767-1.277 0.902-0.886 2.278-0.789 3.287-1.538 1.616-1.197 1.229-2.481 3.671-2.762 1.475-0.169 2.942-0.287 4.396-0.491 0.803-0.112 0.898-0.089 1.858 6e-3 0.586 0.058 1.103 0.207 1.661 0.038 0.74-0.222 1.372-0.635 1.928-1.164 0.559 0.05 1.127-0.144 1.717-0.687 2.912-1.145 5.788-3.792 9.487-3.346 0.04 1.502 0.833 3.838 0.133 5.245-9.593 11.069-11.179 25.361-14.493 38.6-1.452-0.16-2.734 0.584-3.156 1.428-17.151 16.752-33.298 35.75-58.188 39.213-1.841 0.043-3.712-0.02-5.613-0.209 14.355-1.7 25.79-7.696 34.314-14.715z" fill="url(#bm)"/>
<radialGradient id="bn" cx="165.76" cy="205.83" r="167.71" gradientUnits="userSpaceOnUse">
	<stop stop-color="#231F20" offset="0"/>
	<stop stop-color="#ED1B85" offset="1"/>
</radialGradient>
<path d="m246.34 139.55c-16.729-15.904-36.321-30.375-60.177-31.957-7.449-0.32-15.927 5.227-18.284 12.75 1.6-0.411 3.563-0.123 4.785 1.299 1.161 1.198 2.033 2.55 2.726 3.992-0.786-0.124-1.621-0.201-2.548-0.198-9.199 0.032-2.112 28.917 7.839 38.753 9.191 9.088 21.021 16.265 20.456 16.991-2.26 2.904-15.95-4.715-23.256-13.817-7.4-9.218-12.377-21.011-13.344-28.878-0.977-7.95-15.37-17.871-18.622 14.643-3.124 31.224 0.244 54.073 5.758 59.492 5.468 5.377 21.155-3.017 23.729-0.455 1.896 1.885 7.209 8.92 12.428 10.516 0.614-1.579 1.092-3.052 1.457-4.392 0.716-2.621 18.504-22.288 22.023-29.646 3.55-7.431 3.645-9.311 5.966-10.939 0.358-0.25 1.18-1.128 2.308-2.428h1e-3c0.055-0.063 0.116-0.136 0.173-0.201 0.133-0.155 0.266-0.309 0.408-0.475 0.13-0.153 0.27-0.317 0.406-0.48 0.188-0.221 0.378-0.447 0.576-0.685 0.188-0.225 0.379-0.453 0.577-0.692 0.092-0.11 0.186-0.225 0.28-0.339 0.254-0.307 0.515-0.623 0.781-0.95 0.023-0.026 0.044-0.052 0.066-0.08 7.399-9.038 19.586-24.951 21.747-28.998 0.534-0.999 1.136-1.938 1.741-2.826z" fill="url(#bn)"/>
<linearGradient id="bo" x1="-212.94" x2="-163.01" y1="616.76" y2="576.3" gradientTransform="matrix(-.9974 -.0722 -.0722 .9974 -24.248 -545.58)" gradientUnits="userSpaceOnUse">
	<stop stop-color="#65B1BD" offset="0"/>
	<stop stop-color="#fff" offset="1"/>
</linearGradient>
<path d="m60.371 9.296c1.542 0.655 5.422 2.584 10.688 5.231-3.067-1.383-6.105-2.675-9.042-3.901-1.004-0.816-1.646-1.33-1.646-1.33z" fill="url(#bo)"/>
<linearGradient id="cf" x1="-196.58" x2="-147.54" y1="637.9" y2="598.16" gradientTransform="matrix(-.9974 -.0722 -.0722 .9974 -24.248 -545.58)" gradientUnits="userSpaceOnUse">
	<stop stop-color="#65B1BD" offset="0"/>
	<stop offset="1"/>
</linearGradient>
<path d="m70.194 47.561c7.425 6.259 22.412 25.379 28.947 33.892-0.422 0.829-0.834 1.665-1.236 2.507-8.029-11.541-27.711-36.399-27.711-36.399z" fill="url(#cf)"/>
<linearGradient id="bp" x1="-188.96" x2="-139.81" y1="648.37" y2="608.54" gradientTransform="matrix(-.9974 -.0722 -.0722 .9974 -24.248 -545.58)" gradientUnits="userSpaceOnUse">
	<stop stop-color="#65B1BD" offset="0"/>
	<stop offset="1"/>
</linearGradient>
<path d="m58.313 73.271c2.821 2.194 25.988 17.708 34.164 23.063 0.052-0.171 0.102-0.341 0.154-0.512-8.41-7.487-33.478-30.773-33.478-30.773 4.014 3.088 26.11 20.653 34.619 27.422 0.248-0.647 0.51-1.283 0.791-1.906-8.691-8.15-31.83-30.473-31.83-30.473 4.511 3.685 24.718 20.938 33.047 28.056 0.149-0.261 0.306-0.516 0.462-0.768-8.383-9.909-29.644-34.059-29.644-34.059 7.256 6 23.94 23.9 30.915 31.469-2.122 4.551-3.985 9.26-5.89 13.915-11.468-7.995-31.473-23.966-33.31-25.434z" fill="url(#bp)"/>
<linearGradient id="bq" x1="-199.82" x2="-150.48" y1="633.95" y2="593.96" gradientTransform="matrix(-.9974 -.0722 -.0722 .9974 -24.248 -545.58)" gradientUnits="userSpaceOnUse">
	<stop stop-color="#65B1BD" offset="0"/>
	<stop offset="1"/>
</linearGradient>
<path d="m72.388 41.211c5.949 5.103 22.326 27.062 28.99 36.126-0.534 0.917-1.049 1.85-1.548 2.789-7.387-13.29-27.442-38.915-27.442-38.915z" fill="url(#bq)"/>
<linearGradient id="br" x1="-177.75" x2="-131.77" y1="659.92" y2="622.66" gradientTransform="matrix(-.9974 -.0722 -.0722 .9974 -24.248 -545.58)" gradientUnits="userSpaceOnUse">
	<stop stop-color="#65B1BD" offset="0"/>
	<stop offset="1"/>
</linearGradient>
<path d="m74.054 101.34c3.205 0.851 10.522 2.505 14.983 3.501-0.326 0.74-0.658 1.473-0.993 2.204-5.835-2.248-13.99-5.705-13.99-5.705z" fill="url(#br)"/>
<linearGradient id="bs" x1="-209.47" x2="-159.23" y1="622.2" y2="581.49" gradientTransform="matrix(-.9974 -.0722 -.0722 .9974 -24.248 -545.58)" gradientUnits="userSpaceOnUse">
	<stop stop-color="#65B1BD" offset="0"/>
	<stop offset="1"/>
</linearGradient>
<path d="m113.48 62.965c-4.589 3.619-8.145 7.964-11.103 12.713-7.986-18.982-31.375-42.825-31.375-42.825 15.896 13.097 25.378 25.189 30.254 32.42-10.366-28.161-35.773-46.32-35.773-46.32 20.929 13.801 31.898 25.638 37.615 35.736-0.313-1.443-0.701-2.92-1.187-4.45-0.989-3.109-2.59-6.909-4.701-9.506-5.239-6.445-10.857-11.006-17.621-14.831-1.979-1.119-6.865-6.206-8.791-7.905-2.794-2.468-6.629-5.616-8.787-7.372 2.937 1.225 5.976 2.518 9.042 3.9 3.954 1.988 8.683 4.376 13.788 6.933 16.226 9.26 29.794 22.032 28.639 41.507z" fill="url(#bs)"/>
<linearGradient id="bt" x1="-181.34" x2="-134.32" y1="655.95" y2="617.85" gradientTransform="matrix(-.9974 -.0722 -.0722 .9974 -24.248 -545.58)" gradientUnits="userSpaceOnUse">
	<stop stop-color="#65B1BD" offset="0"/>
	<stop offset="1"/>
</linearGradient>
<path d="m61.723 83.139c10.727 6.041 23.847 12.91 29.737 15.968-0.331 0.805-0.663 1.608-0.997 2.408-10.455-5.686-28.74-18.376-28.74-18.376z" fill="url(#bt)"/>
<linearGradient id="bu" x1="-176.75" x2="-130.95" y1="661.22" y2="624.1" gradientTransform="matrix(-.9974 -.0722 -.0722 .9974 -24.248 -545.58)" gradientUnits="userSpaceOnUse">
	<stop stop-color="#65B1BD" offset="0"/>
	<stop offset="1"/>
</linearGradient>
<path d="m79.302 106.43l8.36 1.43c-0.261 0.557-0.526 1.11-0.798 1.66-3.876-1.371-7.562-3.09-7.562-3.09z" fill="url(#bu)"/>
<linearGradient id="bv" x1="-179.04" x2="-132.58" y1="658.52" y2="620.87" gradientTransform="matrix(-.9974 -.0722 -.0722 .9974 -24.248 -545.58)" gradientUnits="userSpaceOnUse">
	<stop stop-color="#65B1BD" offset="0"/>
	<stop offset="1"/>
</linearGradient>
<path d="m66.247 92.783c3.085 1.66 17 6.71 24.011 9.218-0.338 0.797-0.678 1.591-1.021 2.379-9.29-3.764-22.99-11.597-22.99-11.597z" fill="url(#bv)"/>
<radialGradient id="bw" cx="-452.39" cy="832.08" r="112.76" gradientTransform="matrix(-.7873 -.0547 -.057 .7556 -80.222 -521.21)" gradientUnits="userSpaceOnUse">
	<stop stop-color="#FAA930" offset="0"/>
	<stop stop-color="#FCEE2E" offset=".6966"/>
	<stop stop-color="#F5F19D" offset="1"/>
</radialGradient>
<path d="m180.06 143.7c-2.697-6.826-1.737-16.209-7.4-22.051-2.131-2.48-6.519-1.524-7.282 0.605-5.902 5.924 3.012 26.245-5.627 30.234-2.878 1.799-10.722-1.21-11.411-4.863-2.099-9.609 4.692-27.594 2.59-38.296-3.691-18.813-15.313-44.95-5.791-61.129 16.691 6.667 36.867 16.72 50.082 27.425 16.156 13.083 28.144 29.63 30.965 33.092 2.813 3.444 10.537 7.817 16.9 12.001 6.326 4.161 7.747 7.374 4.998 9.063 4.695 3.251-0.484 6.977-3.487 12.602-2.525 4.729-18.75 25.675-25.016 32.901-16.116-6.621-32.583-14.846-39.521-31.584z" fill="url(#bw)"/>
<linearGradient id="bx" x1="-199.42" x2="-175.24" y1="783.26" y2="745.64" gradientTransform="matrix(-.9974 -.0722 -.0722 .9974 -24.248 -545.58)" gradientUnits="userSpaceOnUse">
	<stop stop-color="#669AC2" offset="0"/>
	<stop offset="1"/>
</linearGradient>
<path d="m134.25 261.06c-3.958 1.855-18.473 11.018-28.121 14.209-9.617 3.181-65.989 22.922-65.989 22.922 17.419-10.722 65.353-24.371 73.169-28.591 7.855-4.242 19.702-14.905 34.165-24.301 7.013-4.556 13.095-11.471 17.548-17.462-6.851 6.536-15.02 12.706-17.867 14.36-4.6 2.671-12.837 9.502-12.837 9.502s8.552-8.176 12.233-11.002c3.749-2.879 15.888-11.958 22.478-21.064-15.708 14.354-29.862 11.098-29.862 11.098-7.138 7.735-41.548 32.8-48.251 33.808-6.696 1.008-29.713 17.557-29.713 17.557s13.655-13.575 27.536-18.62c5.076-1.845 9.866-7.187 13.768-13.802-5.304 4.88-11.004 8.154-15.503 10.414-9.245 4.643-26.195 17.281-26.195 17.281s19.844-16.248 25.188-19.909c2.575-1.763 15.277-6.775 23.973-28.075-6.052 7.665-17.939 21.828-26.186 25.88-11.361 5.577-23.284 16.309-23.284 16.309s11.541-12.449 20.788-17.692c4.99-2.832 23.798-18.788 30.653-35.932-0.015-0.206-0.035-0.403-0.057-0.602-3.878 6.858-11.348 16.638-17.903 21.59-7.563 5.71-18.66 13.003-24.434 17.941 4.121-3.882 12.441-11.496 20.737-17.751 3.403-2.566 11.811-10.59 18.317-23.492 1.513-0.783 1.604-11.463 3.474-11.822 11.603-20.29 27.042-24.04 47.99-16.227 15.15 5.651 28.466 7.994 38.385 18.645-4.662 5.763-8.818 10.812-9.159 12.055-4.49 16.439-25.03 51.439-118.45 81.792 85.919-35.034 102.92-60.425 110.58-79.65-15.178 25.386-43.197 38.776-47.166 40.631z" fill="url(#bx)"/>
<radialGradient id="by" cx="-414.54" cy="944.99" r="86.601" gradientTransform="matrix(-.7873 -.0547 -.057 .7556 -80.222 -521.21)" gradientUnits="userSpaceOnUse">
	<stop stop-color="#67C7EC" offset="0"/>
	<stop stop-color="#457DC0" offset="1"/>
</radialGradient>
<path d="m149.63 203.76c0.068-8.478-3.036-25.823-1.896-35.007 1.153-9.294 14.069-31.674 20.879-12.72 3.347 9.315 16.753 23.372 24.208 25.271 2.519 0.641 4.714 0.726 6.575 0.512 0.411 4e-3 0.766-0.052 1.063-0.161 3.034-0.573 5.034-1.936 5.871-2.781 1.141-1.162 6.656-0.951 8.059 2.932-0.697 1.557-1.579 3.702-3.08 6.844-3.519 7.358-21.308 27.025-22.023 29.646-0.061 0.225-0.131 0.458-0.196 0.688-4.861-2.288-10.251-6.221-12.85-8.748-4.127-4.012-7.357-1.312-11.879 0.479-4.511 1.789-14.796 1.428-14.731-6.955z" fill="url(#by)"/>
<radialGradient id="ca" cx="-287.72" cy="852.85" r="10.372" gradientTransform="matrix(-.7873 -.0547 -.057 .7556 -80.222 -521.21)" gradientUnits="userSpaceOnUse">
	<stop stop-color="#233D7B" offset="0"/>
	<stop stop-color="#142E53" offset="1"/>
</radialGradient>
<path d="m92.333 130.96c0.762-1.243 0.547-3.668 2.46-3.772 1.074-0.056 3.846 2.205 4.581 3.07 2.457 2.895 1.701 7.237 0.78 10.125-1.321 4.152-6.498 5.268-8.793 0.403-1.768-3.746-0.803-6.936 0.972-9.826z" enable-background="new    " fill="url(#ca)" opacity=".56"/>
<radialGradient id="cb" cx="-304.03" cy="837.29" r="13.456" gradientTransform="matrix(-.7873 -.0547 -.057 .7556 -80.222 -521.21)" gradientUnits="userSpaceOnUse">
	<stop stop-color="#233D7B" offset="0"/>
	<stop stop-color="#142E53" offset="1"/>
</radialGradient>
<path d="m109.4 136.27c-5.617-0.848-5.942-12.725-5.532-16.516 0.427-3.945 6.908-15.767 10.947-7.233 2.139 4.521-0.516 10.171-0.585 14.622-0.051 3.195 0.476 9.929-4.83 9.127z" enable-background="new    " fill="url(#cb)" opacity=".56"/>
<radialGradient id="cc" cx="-320.98" cy="824.72" r="8.3814" gradientTransform="matrix(-.7873 -.0547 -.057 .7556 -80.222 -521.21)" gradientUnits="userSpaceOnUse">
	<stop stop-color="#233D7B" offset="0"/>
	<stop stop-color="#142E53" offset="1"/>
</radialGradient>
<path d="m121.24 122.28c-3.052-2.123-1.427-3.466-0.842-5.672 0.453-1.705-0.899-5.494 0.694-6.477 1.176-0.726 3.195 0.926 4.325 1.261 4.42 1.313 3.077 2.643 1.619 6.217-1.242 3.047-0.308 8.486-5.796 4.671z" enable-background="new    " fill="url(#cc)" opacity=".56"/>
<radialGradient id="cd" cx="-369.2" cy="865.05" r="13.507" gradientTransform="matrix(-.7873 -.0547 -.057 .7556 -80.222 -521.21)" gradientUnits="userSpaceOnUse">
	<stop stop-color="#233D7B" offset="0"/>
	<stop stop-color="#142E53" offset="1"/>
</radialGradient>
<path d="m152.91 140.08c1.415-2.784 1.553-1.365 3.873-0.699 1.484 0.429 2.833 0.237 4.311 0.28 3.249 0.093 5.066 0.909 4.892 4.657-0.173 3.831-4.688 14.536-9.618 14.141-2.733-0.221-4.909-10.158-4.816-12.688 0.077-2.145 0.416-3.838 1.358-5.691z" enable-background="new    " fill="url(#cd)" opacity=".56"/>
<radialGradient id="ce" cx="-419.99" cy="947.34" r="22.737" gradientTransform="matrix(-.7873 -.0547 -.057 .7556 -80.222 -521.21)" gradientUnits="userSpaceOnUse">
	<stop stop-color="#233D7B" offset="0"/>
	<stop stop-color="#142E53" offset="1"/>
</radialGradient>
<path d="m189.29 218.29c-0.725 2.652-1.877 5.805-3.693 9.348-0.709-0.486-1.358-1.168-1.902-2.076-0.738-1.229-0.512-2.77-1.016-4.042-0.489-1.232-1.564-2.001-2.104-3.135-1.341-2.82 0.06-4.909 1.396-7.307 2.437-4.375-1.478-6.746-0.939-11.019 0.575-4.557 4.454-8.02 9.438-6.86 3.409 0.79 3.713 3.774 6.922 4.714 2.174 0.635 5.192-0.028 7.51 0.195-6.471 8.418-15.116 18.364-15.612 20.182z" enable-background="new    " fill="url(#ce)" opacity=".56"/>
<radialGradient id="aq" cx="-418.85" cy="946.43" r="18.572" gradientTransform="matrix(-.7873 -.0547 -.057 .7556 -80.222 -521.21)" gradientUnits="userSpaceOnUse">
	<stop stop-color="#233D7B" offset="0"/>
	<stop stop-color="#142E53" offset="1"/>
</radialGradient>
<path d="m183.86 220.24c-1.211-1.022-2.304-6.217-1.324-7.607 0.979-1.396 2.584-2.727 1.41-5.269-1.179-2.551-1.015-8.012 2.839-10.338 3.862-2.334 6.76 4.718 8.972 4.354 1.473-0.243 4.625-0.966 6.706-0.156-6.016 7.6-12.74 15.473-13.177 17.069-0.547 2.003-1.342 4.29-2.475 6.818-1.527-1.538-2.14-4.187-2.951-4.871z" enable-background="new    " fill="url(#aq)" opacity=".89"/>
<radialGradient id="ar" cx="-368.67" cy="863.12" r="9.8548" gradientTransform="matrix(-.7873 -.0547 -.057 .7556 -80.222 -521.21)" gradientUnits="userSpaceOnUse">
	<stop stop-color="#233D7B" offset="0"/>
	<stop stop-color="#142E53" offset="1"/>
</radialGradient>
<path d="m157.9 155.11c-3.267-2.147-4.887-7.203-4.048-10.657 1.237-5.088 3.082-2.22 6.557-1.564 2.036 0.384 3.295-1.926 3.924 1.578 0.779 4.346-4.104 8.293-6.433 10.643z" enable-background="new    " fill="url(#ar)" opacity=".89"/>
<radialGradient id="as" cx="-319.32" cy="823.01" r="4.787" gradientTransform="matrix(-.7873 -.0547 -.057 .7556 -80.222 -521.21)" gradientUnits="userSpaceOnUse">
	<stop stop-color="#233D7B" offset="0"/>
	<stop stop-color="#142E53" offset="1"/>
</radialGradient>
<path d="m124.16 120.6c-3.301 1.688-3.795-8.783-1.215-8.625 3.367 0.207 3.42 7.497 1.215 8.625z" enable-background="new    " fill="url(#as)" opacity=".89"/>
<radialGradient id="at" cx="-303.37" cy="835.07" r="10.164" gradientTransform="matrix(-.7873 -.0547 -.057 .7556 -80.222 -521.21)" gradientUnits="userSpaceOnUse">
	<stop stop-color="#233D7B" offset="0"/>
	<stop stop-color="#142E53" offset="1"/>
</radialGradient>
<path d="m105.48 120.87c0.048-2.559 0.138-6.792 2.237-8.381 2.616-1.983 6.019 1.938 6.403 4.951 0.258 2.07-0.874 3.477-1.209 5.353-0.659 3.687 1.501 9.369-3.236 9.824-6.213 0.595-4.267-7.934-4.195-11.747z" enable-background="new    " fill="url(#at)" opacity=".89"/>
<radialGradient id="au" cx="-286.78" cy="851.25" r="7.0277" gradientTransform="matrix(-.7873 -.0547 -.057 .7556 -80.222 -521.21)" gradientUnits="userSpaceOnUse">
	<stop stop-color="#233D7B" offset="0"/>
	<stop stop-color="#142E53" offset="1"/>
</radialGradient>
<path d="m92.405 140.87c-0.932-0.224 0.325-10.285 1.258-11.098 3.016-2.623 6.233 6.474 5.242 8.87-1.107 2.679-3.524 2.942-6.5 2.228z" enable-background="new    " fill="url(#au)" opacity=".89"/>
<radialGradient id="aw" cx="-469.52" cy="832.22" r="8.7293" gradientTransform="matrix(-.7873 -.0547 -.057 .7556 -80.222 -521.21)" gradientUnits="userSpaceOnUse">
	<stop stop-color="#8C2A1C" offset="0"/>
	<stop stop-color="#270E11" offset="1"/>
</radialGradient>
<path d="m238.32 133.1c4.501-3.531 7.873-5.898 11.096-5.354-0.016 0.817-0.465 1.502-1.332 2.034 0.322 0.225 0.596 0.451 0.827 0.68-5.196 0.088-10.591 2.64-10.591 2.64z" fill="url(#aw)"/>
<linearGradient id="ax" x1="-262.59" x2="-255.81" y1="602.28" y2="613.29" gradientTransform="matrix(-.9974 -.0722 -.0722 .9974 -24.248 -545.58)" gradientUnits="userSpaceOnUse">
	<stop stop-color="#F5F19D" offset="0"/>
	<stop stop-color="#fff" offset="1"/>
</linearGradient>
<path d="m214.12 96.376c6.437 7.877 13.23 14.92 5.845 15.614-7.384 0.692-13.009-3.587-22.602-17.283-9.767-13.945-36.433-33.654-44.431-37.648-8.043-4.018 32.841 4.623 61.188 39.317z" enable-background="new    " fill="url(#ax)" opacity=".3"/>
<linearGradient id="ay" x1="-303.76" x2="-301.53" y1="635.24" y2="647.29" gradientTransform="matrix(-.9974 -.0722 -.0722 .9974 -24.248 -545.58)" gradientUnits="userSpaceOnUse">
	<stop stop-color="#F5F19D" offset="0"/>
	<stop stop-color="#fff" offset="1"/>
</linearGradient>
<path d="m245.73 125.01c-3.238-3.144-12.341-11.378-24.34-10.853-12.004 0.526-7.914 12.063-2.098 10.803 5.823-1.261 19.269-1.602 26.438 0.05z" enable-background="new    " fill="url(#ay)" opacity=".3"/>
<radialGradient id="az" cx="-389.16" cy="999.9" r="31.022" gradientTransform="matrix(-.7873 -.0547 -.057 .7556 -80.222 -521.21)" gradientUnits="userSpaceOnUse">
	<stop stop-color="#233D7B" offset="0"/>
	<stop stop-color="#142E53" offset="1"/>
</radialGradient>
<path d="m181.37 230.16c-3.141 7.631-15.86 24.351-37.59 35.484 1e-3 0 30.332-23.478 37.59-35.484z" enable-background="new    " fill="url(#az)" opacity=".56"/>
<radialGradient id="ba" cx="-361.53" cy="829.52" r="3.4399" gradientTransform="matrix(-.7873 -.0547 -.057 .7556 -80.222 -521.21)" gradientUnits="userSpaceOnUse">
	<stop stop-color="#233D7B" offset="0"/>
	<stop stop-color="#142E53" offset="1"/>
</radialGradient>
<path d="m157.68 127.55c-4.639-0.06-1.915-8.629 0.31-6.726 0.785 0.672-0.696 6.721-0.31 6.726z" enable-background="new    " fill="url(#ba)" opacity=".56"/>
<radialGradient id="bb" cx="-320.65" cy="798.47" r="3.0808" gradientTransform="matrix(-.7873 -.0547 -.057 .7556 -80.222 -521.21)" gradientUnits="userSpaceOnUse">
	<stop stop-color="#233D7B" offset="0"/>
	<stop stop-color="#142E53" offset="1"/>
</radialGradient>
<path d="m127.77 99.232c0.063 1.955-3.405 2.253-3.436-0.636-0.02-1.917 2.26-2 3.137-0.364 0.198 0.368 0.29 0.704 0.299 1z" enable-background="new    " fill="url(#bb)" opacity=".56"/>
<radialGradient id="bc" cx="-383.68" cy="786.6" r="16.708" gradientTransform="matrix(-.7873 -.0547 -.057 .7556 -80.222 -521.21)" gradientUnits="userSpaceOnUse">
	<stop stop-color="#ED1B85" offset="0"/>
	<stop stop-color="#fff" offset="1"/>
</radialGradient>
<path d="m167.16 110.12c-5.791-3.446 7.677-52.098 23.451-24.044 4.684 8.331-6.444 19.887-14.285 23.223-2.527 1.076-7.401 1.782-9.029 0.898-0.049-0.025-0.093-0.05-0.137-0.077z" enable-background="new    " fill="url(#bc)" opacity=".31"/>
<radialGradient id="bd" cx="-375.52" cy="762.71" r="7.8479" gradientTransform="matrix(-.7873 -.0547 -.057 .7556 -80.222 -521.21)" gradientUnits="userSpaceOnUse">
	<stop stop-color="#ED1B85" offset="0"/>
	<stop stop-color="#fff" offset="1"/>
</radialGradient>
<path d="m181.26 70.68c0.711 6.067-10.066 12.205-15.064 11.366-3.421-0.574 2.067-10.437 3.2-11.25 3.242-2.328 8.177-2.288 11.864-0.116z" enable-background="new    " fill="url(#bd)" opacity=".31"/>
<linearGradient id="be" x1="-179.89" x2="-190.42" y1="597.13" y2="617.38" gradientTransform="matrix(-.9974 -.0722 -.0722 .9974 -24.248 -545.58)" gradientUnits="userSpaceOnUse">
	<stop stop-color="#F5F19D" offset="0"/>
	<stop offset="1"/>
</linearGradient>
<path d="m114.08 89.748c4.204-3.14 8.558-6.626 13.785-7.822 3.852-0.883 9.583 0.779 11.684-3.722 2.174-4.658-1.906-11.174-1.838-16.141 0.054-3.813 4.355-9.297-1.54-11.499-5.957-2.224-19.142 12.777-22.09 16.631-3.369 4.404-24.067 29.81-15.591 34.897 4.235 2.541 12.307-9.891 15.59-12.344z" fill="url(#be)" opacity=".5"/>
<linearGradient id="bf" x1="-249.09" x2="-241.49" y1="665.12" y2="663.09" gradientTransform="matrix(-.9974 -.0722 -.0722 .9974 -24.248 -545.58)" gradientUnits="userSpaceOnUse">
	<stop stop-color="#ED1B85" offset="0"/>
	<stop stop-color="#fff" offset="1"/>
</linearGradient>
<path d="m172.59 141.29c-1.155 0.18-2.237-0.774-3.698-3.911-7.013-15.048 20.384-8.924 7.957 0.918-1.821 1.444-3.081 2.811-4.259 2.993z" enable-background="new    " fill="url(#bf)" opacity=".29"/>
		<radialGradient id="bh" cx="487.2" cy="819.37" r="11.482" gradientTransform="matrix(.7914 -1.0164 1.0164 .7914 -1002.8 -30.253)" gradientUnits="userSpaceOnUse">
		<stop stop-color="#8C2A1C" offset="0"/>
		<stop stop-color="#270E11" offset="1"/>
	</radialGradient>
	<path d="m211.55 109.88c4.984 3.882 5.882 11.075 2.007 16.059-3.893 4.993-11.076 5.885-16.065 2.007-4.996-3.89-5.89-11.078-1.998-16.064 3.873-4.993 11.059-5.887 16.056-2.002z" fill="url(#bh)"/>
		<radialGradient id="bi" cx="481.3" cy="815.35" r="12.197" gradientTransform="matrix(.7914 -1.0164 1.0164 .7914 -1002.8 -30.253)" gradientUnits="userSpaceOnUse">
		<stop stop-color="#DAEFEB" offset="0"/>
		<stop stop-color="#fff" offset="1"/>
	</radialGradient>
	<path d="m210.23 111.58c4.055 3.146 4.78 8.984 1.628 13.043-3.159 4.05-8.997 4.775-13.054 1.625-4.044-3.149-4.772-8.994-1.621-13.048 3.154-4.054 8.996-4.78 13.047-1.62z" fill="url(#bi)"/>
		<linearGradient id="bj" x1="479.09" x2="490.09" y1="810.99" y2="810.99" gradientTransform="matrix(.7914 -1.0164 1.0164 .7914 -1002.8 -30.253)" gradientUnits="userSpaceOnUse">
		<stop stop-color="#EF3A24" offset="0"/>
		<stop stop-color="#270E11" offset="1"/>
	</linearGradient>
	<path d="m209.34 113.43c3.096 2.411 3.648 6.868 1.235 9.957-2.402 3.093-6.846 3.643-9.94 1.232-3.084-2.406-3.649-6.855-1.242-9.944 2.404-3.094 6.863-3.642 9.947-1.245z" fill="url(#bj)"/>
	<path d="m201.05 118c0.415-2.527 2.807-4.247 5.337-3.826 2.525 0.419 4.25 2.813 3.816 5.343-0.403 2.528-2.797 4.245-5.327 3.821-2.536-0.419-4.247-2.81-3.826-5.338z" fill="#231F20"/>
	<path d="m206.23 115.05c0.709 0.538 0.843 1.561 0.312 2.268-0.555 0.712-1.563 0.843-2.273 0.307-0.708-0.546-0.841-1.565-0.303-2.275 0.539-0.711 1.56-0.838 2.264-0.3z" fill="#fff"/>
</svg>
