<?xml version="1.0" encoding="UTF-8"?>
<svg viewBox="0 0 476.74478 513.3443" xmlns="http://www.w3.org/2000/svg">
 <g transform="translate(-178.77 -140.84)">
  <path d="m472.32 281.33c-2.3052-0.83142-5.1773-3.2879-8.5784-0.9259s-3.1177-0.73694 0.68022-1.1526 14.096-1.3605 7.6336-1.814-4.0624-7.2938-2.4375-7.3694 13.151 0.17007 6.6322-3.7603 10.714 6.4246 2.532-7.6528c6.8589 5.5743 4.7805 8.6165 2.9665 0.35902s-0.3968-17.932 0.43459-16.232 6.6511 13.378 5.8575 0.43461-2.4375-11.13 2.7398-0.69915 4.0814 12.093 3.1744-0.77472-1.984-11.734 2.5319-2.2864-3.4767-9.5046 4.8938-13.624 0.37607 0.5481 6.5755 7.1237c0.53615-4.9075 6.3677-39.795 5.5552-14.153-0.1413 4.4692 4.6671-16.742 5.8008-15.022s4.0246 7.7662 4.4592 5.5365-1.436-4.4027 0.7936-6.0089 6.4621-25.509 7.0479-17.781 3.5334-9.4479 2.8154-2.6454 0.52906 6.5569 1.8706 6.7836-2.2845-20.393-3.4749-16.935-2.9287-7.9174 2.3997-1.2849 11.299 20.861 11.299 20.861l4.5726 7.7851s-15.505 20.65-18.226 22.71-23.732 29.081-24.677 30.574-10.902 12.263-13.038 15.532-5.404 7.4639-8.9374 8.522-13.737 4.1382-13.898 3.8994z" fill="#e6e5e0" stroke="#e6e5e0"/>
  <path d="m601.26 181.02c9.5199-2.8108 12.731-8.511 16.724-7.7336 4.7374 0.92223 15.625-3.7801 18.364-9.8412 1.9211-4.2521 4.9864-4.8658 7.797-6.5658s3.672-4.8508 5.2359-1.36 1.3146 10.223-1.1787 15.98-5.2695 13.184-12.263 20.537c-7.1246 7.4907-12.678 15.751-18.45 18.179-5.8196 2.4484-6.9132 2.0627-8.0466 1.7s-6.4599-7.7749-11.039-11.402-3.5813-5.1455-10.019-7.8429 6.4826-7.3895 7.8879-8.7042 5.1906-2.9241 4.9866-2.9468z" fill="#808080" stroke="#808080"/>
  <path d="m610.14 207.13c12.943-1.2014 15.798-9.8376 23.528-19.63s12.24-18.542 13.849-23.823 0.408-7.2309 0.90666-8.2962 2.7426 3.1734 1.8586 9.2709-4.8733 13.963-9.1346 20.877-9.7919 11.515-14.212 17.295-8.9759 9.4296-13.532 9.0442-4.6356-4.1003-4.6356-4.1003l1.3717-0.63718z" fill="#ccc" stroke="#ccc"/>
  <path d="m562.9 336.62c3.9865-4.8993 2.6897-17.916 3.4101-23.968s1.2488-3.1221 3.6983-0.86458 4.6124 2.5596 6.9178 3.8084 6.7977 9.6399 12.801 8.8234 13.806 4.1297 16.256 5.8108-1.681 6.0504 2.9779 10.037 13.068 2.863 13.068 2.863 5.2579-0.77448 9.4365-0.53432 12.306-9.4839 15.909-12.414 6.3205-5.0708 5.9363-13.236 0.12578-7.2717-1.7474-11.354-5.0912-9.2221-7.6368-15.61-15.802-27.33-17.771-35.303 1.109-16.27-0.0917-23.042-14.894-16.344-15.614-20.667-14.697-12.969-21.854-18.012-10.999-6.052-17.195-6.2922-19.308 10.663-25.648 19.837-35.158 44.574-45.052 55.621-10.567 15.418-18.155 15.899-25.12 12.728-41.882 21.182-17.243 8.7898-28.482 9.4623-13.86 2.9131-25.003 0.12728-32.767-5.7804-44.18-6.6277c-11.54-0.85668-20.477-4.4516-36.653 1.6793-15.027 5.6954-21.728 13.493-27.114 20.363-2.8294 3.6091-0.71171 0.8593-9.0566 9.4967-12.389 12.824-12.518 8.9218-18.906 16.991s-5.7876 14.029-8.5733 32.041 6.9055 60.558 10.892 70.836 9.2698 19.789 8.9336 25.457-0.28818 11.624-0.048 19.789 3.7513 13.896-0.37925 21.533-7.0604 4.9473-5.0912 14.698 6.2243 20.047 7.473 30.854 2.4976 14.073 2.2574 26.562-2.3054 24.064-2.1614 29.924 3.8424 8.5016 3.8424 8.5016 2.0471 0.5882 1.4889 8.5977c-0.50527 7.251 0.76675 7.389 0.76675 7.389s0.66617-7.6736 11.817-8.5898c6.7472-0.55438 10.415 3.0473 10.415 3.0473 0.0335-0.0117-5.6903-6.2045-9.1662-17.169-3.4925-11.016-4.1786-45.102-2.4495-57.35s8.6776-27.95 7.5729-40.15 0.14409-12.008 1.8732-27.042 12.392-34.199 12.824-38.041 3.4101 1.1047 7.2525 9.7985 8.2612 9.9906-1.0086 22.143-14.265 17.147-18.684 20.366-0.0961 13.113-1.8251 18.78-0.096 14.89-2.3054 17.724 8.7816 15.789 13.488 25.443 8.9336 9.6064 10.999 23.247 3.7944 25.265 3.7944 25.265 7.1565 2.0654 13.208 5.3315 12.68 3.8906 12.68 3.8906-4.7069-9.7985-5.0912-21.182 6.4304-9.3384 1.9212-18.108c-4.4986-8.749-19.589-24.271-22.286-37.301-2.5487-12.315-2.2785-12.439 3.1513-20.373 5.5821-8.157 16.024-12.789 21.296-16.247 5.3395-3.5019 34.192-31.971 36.065-37.447s5.865-9.9127 5.865-9.9127 25.319 1.5466 43.385-0.96053c7.5019-1.0411 13.339-6.9647 13.339-6.9647s-1.684 4.0306-2.3376 11.886c-0.64913 7.8019-0.16507 32.016 0 41.74 0.16103 9.4848-2.5134 8.1914-4.0023 19.575s1.8662 25.508 0.95364 31.368-1.7129 15.053-7.6848 27.81c-5.617 11.999-3.9719 17.017-2.2505 21.275 1.705 4.2172 2.9298 2.7378 2.1133 6.5804s-6.2439 12.921-6.2439 12.921 2.7157-3.6003 5.2724-4.1082c11.597-2.3036 16.454-0.27563 17.943 2.5582s-0.566-3.1414-1.6707-11.019 3.0739-9.9906 2.5936-16.187 0.67688-8.3755 1.2661-22.324c0.81648-19.329 13.634-33.972 16.378-41.211 2.9539-7.7918 1.5283-38.075 2.6927-52.862 1.2938-16.429 14.278-34.061 15.177-33.382 1.2824-2.1071 8.8257 14.748 8.1651 27.282-0.60676 11.512-0.7798 31.165 2.6416 48.08 3.4178 16.897 1.1226 17.951 3.2569 34.262 2.0035 15.312 0.87369 36.201 2.3626 43.454s14.697 8.4056 14.697 8.4056 4.659-8.6977 7.829-11.58 2.3054 2.9299-1.2008-15.754-5.4755-21.562-4.3708-39.046 1.5484-31.167 2.5063-47.772c0.99494-17.247 3.8817-24.996 9.0689-34.603s8.1501-33.823 6.4022-39.563c-1.5316-5.0296 20.641-36.455 19.4-48.347-1.2362-11.847-7.663-21.82-5.3174-29.731 3.8449-12.967 7.5427-17.962 7.5427-17.962l10.913-0.20147z" fill="#e6e5e0" stroke="#e6e5e0"/>
  <path d="m306.27 413.59c6.0658 18.893 28.672 32.014 32.627 38.053s40.617 21.164 49.221 21.699 35.941 0.5879 39.415-1.3361 10.448-3.3136 12.105-6.6273 3.7678-15.553 2.2446-19.187 1.5499-18.091-14.056-18.973-13.174 5.0239-26.241 10.315-41.606-15.82-60.658-16.862-31.451-4.4894-33.269-6.4936-0.3741-0.0802-1.3895-0.5879z" fill="#ceccc2" stroke="#ceccc2"/>
  <path d="m581.21 188.46s0.20785 5.1397 6.9156 3.1934 17.724-1.9274 20.085-2.173 1.5305-4.5161-2.0785-4.5728-5.234-2.721-2.4942-2.5509 2.2674-1.6062-2.3241-2.0408-4.5159-0.88811-0.71802-3.4768 8.2572-7.804 2.6264-5.6121-7.7281-1.096-6.5188-4.0815 9.4853-13.681 6.2354-11.262-9.3531 7.5017-8.3327 4.7429 5.3662-16.061 1.2471-10.582-2.6264 1.455-3.2311-2.9478-0.0378-6.1978-3.9113-3.0233-8.2005-1.4172-7.1801 20.181c2.4564-21.22-8.106-21.881-7.6714-18.82s0.86918 9.807-4.1947 5.1964-7.7659-3.2501-7.3124 0.13227-3.8735 3.7603-3.5334 2.9856 5.6496 28.212 3.6846 31.121 1.7761 5.1964 5.0639 2.9666 13.699 1.0204 13.642 0.62357z" fill="#e6e5e0" stroke="#e6e5e0"/>
  <path d="m607.86 337.72c-1.224-9.7469-0.45333-8.0922 0.0907-14.326s0.27199-9.0216 4.1026-9.4976 8.3412 2.1081 8.7946-1.8587 3.128-9.2256 6.4599-12.92 7.6159-10.948 8.8852-8.0469 2.04 10.518 4.42 11.991 7.4119 4.2615 6.9812 2.1307-1.9946-11.538-2.9013-13.034 4.1253 8.4776 5.9159 12.898 3.4226 11.424 2.8333 14.711 2.2666 1.8134-2.4026 7.4122-7.5932 4.9188-10.132 8.4096-4.08 3.4908-6.2786 5.4175-3.5813 1.6094-8.4319 2.1761-10.041 0.49868-12.263-0.81603-4.7146-2.4707-6.0746-4.6468z" fill="#61514e" stroke="#61514e"/>
  <path d="m635.46 291.52c1.632 7.0042 5.3275 15.328 2.3356 20.428s0.29466 7.6162-3.8306 9.2936-3.6289-0.49078-9.7239 0.15867c-13.796 1.47-13.259 6.5938 8.7932 21.119-3.6798 2.7398-23.163-14.77-23.776-11.44s2.1306 9.7469 3.8986 10.767 15.955 2.7096 18.904 0.74803c3.5032-2.3307 9.592-7.5782 11.71-9.6582 2.2426-2.202 10.303-6.7724 10.13-11.207-0.16545-4.2388-4.7756-20.599-6.4048-23.54-1.5864-2.8643-0.136-2.6521-0.43066 1.6774s0.92932 6.1882-0.81599 5.5535-5.9613-1.3827-7.5026-4.8735-2.3129-9.3667-3.2875-9.0267z" fill="#907976" stroke="#907976"/>
  <path d="m634.67 320.42c-1.3373-5.8255-1.8813-9.9963-2.4253-13.374s-3.5813-3.9668-5.1906 2.4934 4.0346 9.6789 5.2359 9.6109 2.6293 0.92936 2.38 1.2694z" stroke="#000"/>
  <path d="m634.29 321.58c-7.4119-2.0401-12.92 0.38534-10.563-8.3416s6.8583-9.0772 7.2306-8.8629-6.9359 3.9441-4.8733 8.5682 7.7746 6.8682 7.7746 6.8682l0.43066 1.768z" fill="#7e6966" stroke="#7e6966"/>
  <path d="m573.07 235.2c2.5386-1.0427 7.5479-2.9241 11.152-2.9694s10.517 3.9894 11.832 6.3015 1.292 3.8534 1.292 3.8534 1.4506-0.29468-5.7346-3.9668-7.5252-1.8814-11.809-2.0174-7.1172-1.1334-6.7319-1.2014z" stroke="#000"/>
  <path d="m564.27 195.48c0.45333-12.694 5.2133-28.447 2.6746-33.23s-6.97-14.205-12.376-17.25c-4.6158-2.5995-8.1271-3.8854-13.464 3.5588-5.603 7.8156-4.4953 12.918-5.0999 22.645-0.61119 9.832 6.1426 14.643 7.5706 19.086 2.8212 8.7774 4.3746 13.238 4.3746 13.238s7.4799-1.156 8.0239-2.6521 5.4173 1.36 6.8679 0.74802 1.972-6.2788 1.428-6.1428z" fill="#808080" stroke="#808080"/>
  <path d="m549.49 198.09c-6.7989-22.361-9.9478-24.049-9.2083-35.112s7.8008-11.532 8.6119-14.228 6.8227 5.4379 9.2083 8.8367 6.6557 12.704 5.6061 19.806-3.9433 19.83-5.1054 19.422c-0.64302-0.22561-6.0839-0.89387-7.6812 1.5792-1.0099 1.5637-1.2644-0.60943-1.4313-0.30471z" fill="#ccc" stroke="#ccc" stroke-width="1.0432"/>
  <path d="m558.58 159.51c-0.0227 9.8829 4.1706 25.682 0.31733 29.762s-4.8279 6.6868-7.0946 2.9468-4.9186-4.4428-7.7292-14.96-3.9666-11.832-1.5413-16.388 7.8199-10.79 9.0666-8.9762 7.0946 7.8429 6.9812 7.6162z" fill="#f4d7d7" stroke="#f4d7d7"/>
  <path d="m590.45 190.81c5.2586-3.9668 8.3866-10.427 15.345-7.6162s14.937 3.6721 17.816-1.6547 6.0293-9.6109 9.7012-13.374 4.1614-7.6572 4.1614-7.6572c0.33587 0.88282-4.5374 10.435-9.8593 9.9752-5.3429-0.4617-12.231 2.4482-17.939 6.3441-7.8059 5.3275-6.5092 1.3115-13.989 7.613s-8.9306 5.1908-8.1372 6.2788 3.2186 0.52135 2.9013 0.0907z" fill="#9a9a9a" stroke="#9a9a9a"/>
  <path d="m419.58 639.17c-0.35901 0.8881-2.3052 12.207-2.3052 12.207s7.9737 0 13.416 0.0756 14.549-2.173 14.549-2.173l-1.5305-11.262s-0.0945-5.6688-5.9142-5.6499-15.286 2.5887-16.458 3.6091-2.2674 3.7792-1.7572 3.1934z" fill="#93877b" stroke="#93877b"/>
  <path d="m509.28 622.47c1.6817 0.11337 1.3793 4.176 1.3793 4.176 0.14243-0.13603-2.703 4.4753 1.914 5.0623 6.1314 0.7796 24.613-1.5991 24.613-1.5991s-0.29147-8.8177-6.4534-13.621c-5.3379-4.161-8.6796-7.3208-9.7188-7.6232s-10.997 13.284-11.734 13.605z" fill="#83776b" stroke="#83776b"/>
  <path d="m312.8 638.12c1.0165 6.3246 29.073 7.9017 29.073 7.9017s-0.47864-12.204-3.5781-13.176c-3.4877-1.0945-21.807-7.8863-22.529-8.6078s-3.3628 11.414-2.9661 13.882z" fill="#83776b" stroke="#83776b"/>
  <path d="m315.54 625.07c0.15609-10.679-8.7502-39.659-4.5871-37.72 3.7436 1.7436 15.538-22.485 29.067 10.796 0.69459 1.7117-5.8767 18.076-3.0357 21.563 4.3585 5.3494 4.0069 13.724 4.0069 13.724s-16.7-4.7182-19.853-6.3349-5.7582-1.8936-5.5979-2.0272z" fill="#b8b5a7" stroke="#b8b5a7"/>
  <path d="m303.94 415.74c-10.956 0.56118-6.1994-12.586-14.216 2.9395s-7.8295 11.411-7.3218 32.816-5.6218 38.874-9.3094 48.12-2.3515 17.076-2.1645 26.402 2.8592 19.053 1.5766 25.654 0.9887 9.1125 3.5807 18.973 4.222 15.419 4.222 15.419 1.2826-25.975 3.1532-33.27 4.7565-21.164 5.3176-31.827 1.63-30.277 6.1994-39.47 9.2724-20.069 9.3526-21.672 1.031-11.251 6.5892-17.157 10.609-8.9254 9.3259-9.7806-13.067-14.831-13.575-18.225-2.9394 0.82841-2.731 1.0772z" fill="#ceccc2" stroke="#ceccc2"/>
  <path d="m304.08 461.06c7.5355 14.938 11.596 16.374 10.741 23.054s-16.791 23.859-18.528 25.917-6.5468 2.8326-7.589 7.6694 2.6187 8.7116-0.45427 19.294-1.4162 12.863-1.924 14.734 14.623 22.365 18.625 31.533c3.5822 8.2061 5.1238 8.8294 5.1238 8.8294-0.72238-3.0172-3.1806-1.48 2.4651-4.34 9.253-4.6873 14.082-8.5246 15.712-7.2686s-11.49-11.811-12.933-23.863-2.9394-16.381 4.222-22.126 26.74-16.629 31.47-23.202 28.688-32.882 29.597-37.024 0.21377-2.8593 0.21377-2.8593c-6.882-0.98522-62.495-35.134-61.219-36.603 2.0448-2.353-13.492 7.9151-15.523 26.256z" fill="#b8b5a7" stroke="#b8b5a7"/>
  <path d="m439.77 454.08c-6.4132-6.1195-9.6733-11.063-22.019-8.3108s-11.33 11.277-36.128 11.25-29.153-5.398-32.627-4.436-2.3248 2.405 1.4162 6.1997 28.307 13.915 36.944 13.652c9.4124-0.28686 34.984-1.1966 39.44-4.1536 4.5789-3.0383 13.267-3.94 13.774-7.4674s-0.56116-6.1997-0.80165-6.7342z" fill="#b8b5a7" stroke="#b8b5a7"/>
  <path d="m567.35 309.45c-4.9702-6.3066-10.101 6.0394-21.484 12.667s-19.721 12.079-27.042 22.821-7.0011 17.209-21.698 35.274-11.758 19.401-21.484 40.191-11.915 21.928-13.571 42.719 2.1377 24.799-2.1377 46.017 1.2826 32.121-2.6187 41.688-3.6876 12.667-0.26721 4.3825 6.627-16.194 6.1994-29.716-4.1151-36.877 2.7256-49.17 15.124-18.973 15.124-18.973-10.261 3.5808 4.2755 4.0084 17.797 1.7103 23.889-7.1617 14.911-21.004 21.057-26.937 16.062-31.473 17.85-39.015c3.7352-15.756-8.2113-24.648-4.8634-32.121 5.2429-11.702 5.184-14.804 8.7113-17.637s16.333 0.80663 14.852-5.9464c-2.0715-9.4454-0.41747-23.121 0.48329-23.09z" fill="#b8b5a7" stroke="#b8b5a7"/>
  <path d="m479.06 461.77c6.9476 0.42756 28.859-13.468 35.486-19.775s16.3-11.918 16.3-11.918 2.2981 15.766-1.0154 25.119-9.2992 22.02-12.292 35.434-4.1152 18.866-3.9548 34.366-1.4746 23.85-0.94014 41.968 4.0617 33.029 6.146 38.855-8.7647 17.744-8.7647 17.744-4.9168-0.21378-10.261-4.9704-3.3669-3.474-4.8099-17.37 1.1223-49.918-2.0843-60.073-5.0367-6.4151-5.7315-16.944 1.3045-32.66-0.24538-43.563-7.2149-19.828-7.8334-18.873z" fill="#b8b5a7" stroke="#b8b5a7"/>
  <path d="m249.6 436.67c8.4975 2.5119 20.789 23.302 21.003 32.602s-3.8479 8.9254-6.5201 20.47 1.9774 11.598-0.96198 3.0464 1.5499-15.232-2.6187-24.425-10.475-20.951-11.17-27.311 1.3361-4.9704 0.26722-4.3825z" fill="#b8b5a7" stroke="#b8b5a7"/>
  <path d="m480.84 452.29c7.2416-19.748 8.6846-24.505 20.709-25.093s24.958 1.0422 26.802-0.69479 7.4286-4.5162-6.4399 8.9521-16.113 23.596-25.599 24.585-14.376 0.96202-15.686-0.29396 0.3741-7.5358 0.21377-7.4557z" fill="#999581" stroke="#999581"/>
  <path d="m373.87 471.23c13.812 2.3998 33.505 2.1603 40.44-0.59846s15.927-17.646 19.309-17.949 5.1616 10.155 5.1616 10.155c-0.0796 0.0796 4.5498 2.2915-4.6378 6.4494-7.7205 3.494-9.1683 3.6601-18.193 4.647-9.1856 1.0045-32.739-0.91205-36.87-2.3251-6.9125-2.3639-5.4519-0.7469-5.2092-0.3789z" fill="#999581" stroke="#999581"/>
  <g transform="translate(34.203 90.04)" stroke="#000">
   <path d="m596.73 181.72c-3.604-9.8603-7.0761-12.533-11.247-21.464s-3.6493-10.948-5.6213-16.502-3.74-11.923-3.74-11.923 0.61199-0.38534 2.244 3.8081 3.3773 6.4828 4.7373 11.923 3.4226 10.155 5.9159 15.572 8.5041 18.608 7.7108 18.585z"/>
   <path d="m593.73 184.03c-5.5533-8.3869-15.735-31.372-18.455-34.682s-6.6412-11.9-7.1399-14.666 0.068-8.5682 2.1533-1.3827 2.3573 8.1376 5.4173 14.076 4.8733 13.487 9.6106 19.222 9.0144 15.272 9.2864 16.7 0.0563 0.89068-0.87304 0.73201z"/>
   <path d="m569.2 150.57c0.92933 4.3521-3.0146-0.45335 1.4506 6.9589s9.5426 12.943 13.849 18.383 7.6881 13.027 7.6881 13.027l0.88486-2.1381s1.2227 0.32498-2.7906-5.6379c-7.9227-11.772-12.99-18.103-16.141-23.18s-4.6013-7.6842-4.9413-7.4122z"/>
   <path d="m591.27 191.94c-2.516-3.6041-2.2082-5.6913-5.0868-9.4314s-8.6132-12.444-11.945-16.207-6.0293-8.8176-7.0492-10.155-5.5759-4.1934-1.0427 2.8107 8.4319 10.835 10.925 12.898 10.177 12.603 11.605 15.731 3.3642 5.3286 2.5935 4.354z"/>
   <path d="m564.78 160.34c5.1226 7.2309 11.039 14.462 14.506 17.227s7.5252 11.039 8.8172 13.623 1.6744 4.4252 1.6744 4.4252-0.22377 3.9617-4.0317-3.7678-11.56-20.537-16.32-22.577-8.1372-3.4454-8.1372-3.4454-0.90666 0.88403 1.632-1.7454 2.8106-4.0574 1.8586-3.7401z"/>
   <path d="m538.78 220.16c-1.0653-5.6668-3.0146-6.8682-2.1533-16.683s-1.3373-14.462 3.4-21.443 12.693-6.6642 17.725-7.0722 15.05-1.3374 18.405 2.4934 8.7266 17.431 11.084 20.401 1.3473 1.6513 1.3473 1.6513-3.5006-10.016-8.9859-14.458-2.8106-7.9789-10.857-5.2588-15.73 0.79336-20.966 5.3948-7.3439 4.6695-7.8879 12.807 3.2866 19.993 2.6066 23.937-3.5813 0.52135-3.5813 0.52135l-0.136-2.2894z"/>
   <path d="m545.57 225.62c-0.36266-13.691 0.136-15.572 1.7226-23.755s4.5786-12.286 9.5879-13.011 6.4826-0.0453 12.036-1.564 9.7239-4.0348 12.716 2.2214 6.0112 13.165 6.0112 13.165 0.35096 0.36827-3.0419-4.5967c-5.227-7.6491-2.2213-4.9868-9.7465-4.6921s-11.605-0.38534-16.138 3.3321-9.4746 1.088-10.767 6.8455 1.2013 13.17 1.3146 19.902 1.5866 8.5229 1.5866 8.5229l-5.2813-6.3695z"/>
   <path d="m596.95 177.44c-2.1986-3.2188-9.1799-21.557-9.3159-24.821s-1.904-6.4148-3.6946-12.24-1.428-12.694-1.428-12.694 1.088 5.5308 2.3346 11.538 4.0346 8.2509 4.2839 13.85 8.1372 24.118 7.8199 24.367z"/>
   <path d="m591.64 155.74c-1.7226-7.0042-2.4253-9.8603-4.3973-14.326s-1.292-9.9056-1.292-9.9056 0.24933 2.2667 1.7906 8.2509 4.7373 16.116 3.8986 15.98z"/>
   <path d="m592.14 147.42c-2.108-7.2535-3.9213-12.852-3.9213-12.852s1.8133 1.972 2.652 6.3468 1.6773 6.1882 1.2693 6.5055z"/>
   <path d="m582.01 135.3c-2.8333-3.2868-2.9013-6.9815-6.1426-7.7296s-4.352-3.4454-2.584 3.5361 4.7599 11.583 6.2333 17.227 3.4226 9.2936 6.4372 15.459 5.5759 8.6589 7.4572 12.671 2.0046 4.4754 2.0046 4.4754 0.39113 3.9052-0.34999 1.146c-1.599-5.953-3.536-7.5936-7.5252-12.988s-8.7719-15.663-9.9732-19.925-1.8813-9.7243-4.7826-15.572-2.1306-6.5282-1.5413-7.7296 3.9213-1.7907 6.4146 0.9747 5.0319 8.8176 4.352 8.4549z"/>
   <path d="m593.92 185.33c-4.8279-7.6389-16.872-31.065-20.272-34.329s-5.0773-2.8334-6.4146-7.0949 0.40799-10.676 0.24933-12.444 1.5413-1.5867 1.5413-1.5867 2.312-0.068-0.068-3.2868-3.604-5.0548-4.0573-7.5709-0.63466-9.1349-0.63466-9.1349-1.0653 2.1534-0.0907 8.5909 1.0426 6.8002 1.0426 11.946-3.0146 8.3189-1.292 12.172 3.264 6.3922 6.3466 8.9536 7.1626 8.5456 10.245 13.328 8.5452 14.484 10.925 18.338 2.813 2.7503 2.4786 2.1186z"/>
   <path d="m558.91 143.34c0.11333-5.5762 2.1306-10.314 2.7653-13.328s3.332-4.8508 2.9466-7.1629-0.45333-9.8603-2.2213-10.608-1.768-2.0627-3.808 2.8107-3.7853 8.9762-3.7853 8.9762 0.0453-2.3347 0.544-6.3242 2.5386-6.6189 1.9493-7.8429-1.768-2.1987-1.768-2.1987-0.0907-0.65735-0.95199 5.4628-1.3373 4.6695-1.768 10.608-2.516 6.6868-2.448 10.722 1.1107 3.6948 1.1107 3.6948 0.83865-1.6774 2.448-6.9589 1.496-4.7828 3.4453-9.2256 3.3546-5.8028 3.3546-5.8028-0.18133 1.8134-0.99732 8.1376-0.65733 6.4828-2.04 12.399 1.6773 7.2535 1.224 6.6415z"/>
   <path d="m554.79 103.95c-1.9946 5.3042-1.6093 7.5029-3.0146 14.28s-4.9866 7.4576-4.2613 15.822 1.2693 7.1402 1.2693 7.1402-5.0999-3.5588-4.7599-7.6162 2.0626-3.4681 3.6493-11.855 2.4706-13.578 3.74-16.524 3.4-3.7854 3.4-3.7854l-0.0227 2.5387z"/>
   <path d="m551.13 102.43c-3.672-0.29467-5.9159 0.63469-7.9786 5.0321s-3.0146 7.6389-5.1453 10.495-4.1706 8.7042-6.3239 9.5656-2.6973-0.0453-2.6973-0.0453 4.012-0.9747 5.9613-7.5256 5.1906-11.016 7.5252-14.688 6.9132-6.6415 8.7946-5.6668 0.83866 2.9694-0.136 2.8334z"/>
   <path d="m548.18 104.43c-1.0653 7.8429-0.77066 6.7775-3.8533 11.334s-3.0826 2.9468-4.2613 10.404-1.7453 13.918-1.7453 13.918-1.088 4.6241-1.4506-5.0321-2.8333-7.6842 0.63466-13.782 8.0466-11.22 8.4319-13.646 2.4026-3.6041 2.244-3.1961z"/>
   <path d="m545.64 118.48c-2.516 8.1376-4.6013 11.696-4.6919 17.431s1.3146 7.5256 0.97465 4.3295-1.2466-9.7243 1.6093-11.946 2.5386-10.2 2.108-9.8149z"/>
   <path d="m532.05 128.84c1.02 7.5709 1.224 11.13 3.4226 12.558s2.2893 0.20401 2.2893 0.20401-3.6493-2.2441-3.332-5.3722 1.1333-8.8402-0.136-9.4296-2.4933 2.1307-2.244 2.0401z"/>
   <path d="m536.35 103c-3.6266 8.0469-10.472 14.031-11.787 18.497s-2.7653 7.1402-2.108 11.062 0.95199 0.20401 0.95199 0.20401-1.6093-4.2161 2.4026-11.243 9.1119-7.9336 10.789-13.804 4.148-10.812 4.148-10.812-1.5186-3.7854-2.7426-0.136-1.3373 6.9815-1.6546 6.2335z"/>
   <path d="m541.28 145.45c2.2893 4.2388 2.8816 5.8888 6.0972 7.3442 2.524 1.1424 5.1597 2.7103 8.7719-0.45335 3.0558-2.6764 5.8933-1.292 5.8933-1.292s-6.7092-6.5055-9.2479-5.5308-9.1572 1.088-11.515-0.068z"/>
   <path d="m532.57 115.7c-3.196 9.1803-4.6466 8.6589-6.6412 16.434s-3.2866 6.2335-2.8106 15.55 0.99732 16.343 0.99732 16.343 1.904 2.4707 1.6773-4.5788-2.38-10.087-0.068-19.607 3.4906-10.132 6.6412-17.567 5.0546-9.5429 6.4599-13.986 5.4853-10.518 5.4853-10.518 0.20399-5.9842-2.3346 0.34001-8.6359 18.542-9.4066 17.59z"/>
   <path d="m528.35 134.04c3.4453 7.6162 8.0012 7.7296 8.8626 15.096s-2.6066 10.54-2.6066 15.64-0.272 10.971-0.272 10.971-3.6946 3.8534-1.6093-3.7174 5.1679-11.832 3.6493-19.97-4.8733-9.3163-7.2079-13.623-0.34-4.8961-0.81599-4.3974z"/>
   <path d="m525.62 140.29c2.1306 4.8055 5.0319 8.5682 4.6013 13.238s-2.5386 13.6-4.5559 17.635-3.2866 4.9641-4.3293 11.674-2.856 12.875-3.0826 18.723-0.85885 9.0873 1.292 12.24c1.9946 2.9241 8.8399 3.3774 10.699 3.8761s3.128 2.8788 3.128 2.8788 0.65732-2.4707-4.0346-4.1481-8.6359 2.1761-8.9532-7.6389 2.924-14.983 4.7373-24.594 5.1453-18.474 6.6412-24.073 2.0853-12.376 0.58932-15.414-4.8733-8.8856-4.8733-8.8856l-1.8586 4.4881z"/>
   <path d="m538.75 144.44c-0.068 6.9815 4.3973 15.754 6.3919 16.774s1.2013-0.36267-2.6746 0.70269-5.7346 5.5762-6.0972 7.0722-1.3826 6.3468-2.516 7.0722-1.1106-1.496-3.2866 5.2361-5.3719 19.517-5.4399 23.619 0.33999 10.087 2.0173 11.764 7.2532 3.0148 7.2532 3.0148-0.97465-0.90669-2.5613-6.0295-4.3746-0.63469-1.0426-14.711 6.8679-26.43 9.9052-29.286 7.9106-1.02 12.24-1.292 9.7692-1.36 9.8825-3.6494 3.0826-3.6041 0.11333-4.7375-3.0373-1.2694-8.3639-0.47601-4.4879 2.8787-9.5199-2.8108-5.8253-12.626-6.3012-12.263z"/>
   <path d="m554.35 230.62c-2.2893-8.0922-2.652-11.923-2.1533-17.59s0.99732-7.2082 6.6412-8.4322 13.101-2.7881 18.768-2.6974 9.418 2.172 9.418 2.172l-0.7106 8.9128s0.0661-0.57667-1.5222-1.5191c-6.2527-3.7103-4.3293-2.6974-15.776-2.3121s-12.081-1.8134-13.532 2.5841-1.7226 8.6362-1.0653 12.875 2.652 8.8856 2.652 8.8856l-2.72-2.8788z"/>
   <path d="m559.24 233.43c-1.8813-5.1908-5.1453-9.4749-0.43066-12.263s12.217-3.0828 17.612-2.7201 10.812 1.1787 10.812 1.1787l0.88399-3.0148s-0.74799-2.6294-6.7319-2.4934-10.291-1.3147-17.272 0.61201-8.0692-0.43068-8.7266 4.9188-1.4506 12.036 1.088 14.348 3.74-1.3827 2.7653-0.56668z"/>
   <path d="m560.4 233.56c-0.65733-6.2788-3.536-8.5456 2.72-9.5429s7.4346-0.61202 12.353-1.6094 10.903-1.4734 10.903-1.4734 0.83576 3.1419-3.7049 2.397c-6.7356-1.105-2.8003-0.22091-9.1016 0.84446s-8.2506 3.1961-9.1799 5.8935 0.61061 5.352 0.61061 5.352l-4.5999-1.8612z"/>
   <path d="m568.06 237.26c-0.67999-6.5282-0.24933-9.6109 2.0626-9.4296s3.4453 0.65735 2.1533 3.9894-1.4733 6.1428-0.204 6.3922 1.2466 1.7227 1.2466 1.7227l-5.2586-2.6747z"/>
   <path d="m517.09 210.39c-1.9493-3.1734-3.468 0.74802-3.128-8.9309s4.8053-22.486 5.3266-28.742 2.5613-18.338 2.4933-24.322 1.7-9.9056 1.7-9.9056-1.36-2.4481-1.9493-0.18134-1.768 8.8856-1.7453 15.164 0.43066 5.8028-1.496 15.686-2.6066 10.45-4.1933 18.769-3.5133 8.8856-1.9266 14.598 1.904 7.2082 4.9186 10.019 0.95199-1.6547 0-2.1534z"/>
   <path d="m512.01 202.1c-1.4733-14.462-2.4026-10.11 1.1333-20.99s3.8986-12.626 4.1253-22.554 2.7653-18.905 1.9493-23.234-2.1986-11.968-2.176-14.394 0.52132-4.1708 2.4706-1.6094 3.3546 4.9641 3.4226 2.5161-0.74799-2.9241-0.74799-2.9241-1.0426-1.6774-1.2466-3.7854 0.36266-5.9388-1.7453-3.4681-6.1199 0.47601-5.0773 8.2736 1.6093 7.8656 1.8813 15.323-0.74799 8.3869-1.5413 15.776 0.63466 8.9989-0.63466 16.094-1.7 9.0216-3.3093 16.139-3.5133 11.402-1.7 14.892 3.7853 5.0321 3.7853 5.0321l-0.58933-1.088z"/>
   <path d="m507.93 190.72c2.3573-9.8603 2.176-11.334 2.9013-20.469s0.99732-12.943 2.2213-22.078 2.0853-10.087 0.43066-18.179-0.67999-15.074-0.67999-15.074-1.9946-2.4934-2.1986 3.2188-1.088 1.3827-0.40799 13.714 1.5186 8.7722-0.67999 20.287-3.672 11.107-3.06 18.927 2.6066 10.744 1.836 14.28 0.45333 5.3268-0.36266 5.3722z"/>
   <path d="m508.27 191.51c-3.2413-13.17-3.876-21.693-2.5613-27.835s4.6466-17.952 2.9693-22.531-2.924-13.578-1.7906-17.182 4.012-8.3189 1.496-3.7854-4.7373 3.2188-4.3973 11.56 0.58933 8.5456 0.49866 19.131-1.428 8.1829-1.36 16.751 1.02 14.53 2.4253 18.383 3.468 6.3242 2.72 5.5082z"/>
   <path d="m502.88 129.47c-1.768 11.22-2.4706 2.1987-2.38 12.943s4.3973 8.0016 3.2413 17.862-4.3519 3.5814-1.7 15.232 1.768 9.5656 4.6466 19.63 4.8959 17.318 8.3639 22.486 8.9306 10.518 11.628 10.835 5.0546 0.95203 5.0546 0.95203l-0.15867 7.7522s-10.608-7.0722-12.059-7.8882-8.6359-10.291-12.172-19.063-5.8026-23.937-6.2559-32.913-3.536-13.94-4.0346-24.413 1.4733-14.575 2.652-17.794 3.604-6.9135 3.604-6.9135l-0.43066 1.292z"/>
   <path d="m531.9 226.06c-6.3466-3.4001-12.104-5.8935-14.076-8.9082s1.632-2.3801 6.0519 0.15868 8.6132 4.1481 8.6132 4.1481l-0.58933 4.6015z"/>
   <path d="m530.99 241.66c-5.7573-3.0828-11.107-12.467-17.612-17.748s-9.6105-11.832-11.492-22.69 0.20399-22.237-3.808-31.825-5.0546-17.794-4.4653-22.509 4.6693-13.464 4.6693-13.464-3.7626 2.7201-6.0972 9.7923-4.556 3.4228-2.0626 18.202 5.9612 20.718 6.3919 32.165 0.36267 18.837 5.5533 26.045 10.2 16.162 14.121 18.383 10.087 8.0469 11.537 8.3189 4.3973-4.8735 4.3973-4.8735l-1.1333 0.20401z"/>
   <path d="m484.89 150.87c0.0227 7.6389-2.584 13.215-1.5413 22.871s-2.584 8.4322 1.0426 20.809 7.7972 18.587 10.744 26.725 9.1572 16.388 12.195 18.995 11.56 6.7322 11.56 6.7322 1.02 2.4481-3.7626-4.2614-1.2466-6.5508-7.6386-12.036-9.5199-13.668-11.447-22.735-6.4826-14.212-6.4599-21.965-2.04-21.353-1.768-28.107 1.1107-12.422 1.1107-12.422l-4.0346 5.3948z"/>
   <path d="m482.84 153.65c-1.2693 11.356-1.6773 28.198-1.2693 30.17s-1.496 7.3895 0.61199 16.706 4.08 10.631 8.2732 19.947 11.197 17.091 14.234 21.149 8.3866 6.5282 10.155 7.0269-2.1986 7.3669-2.1986 7.3669-2.7426 1.3827-6.0973 0.11334-5.8026-0.0907-8.9532-4.1481-9.6785-20.537-14.302-26.951-7.4799-6.0975-7.4119-15.391-0.47599-23.37-1.292-31.304-0.476-16.207-0.476-16.207l8.7266-8.4776z"/>
   <path d="m471.28 165.73c0.13599 8.7496-0.34 23.325 1.02 29.808s-0.43066 9.9509-0.13599 16.57 7.5932 17.091 9.6785 20.673 2.856 9.951 7.5252 15.3 8.0692 10.654 12.217 12.467 10.019-1.836 10.019-1.836l-1.5866 7.9109s-4.216 5.9162-7.8879 8.1149-8.3412 4.7828-13.01-0.43068-1.836-9.1349-7.5252-14.031-9.4066-3.9214-13.962-11.832-6.3239-6.2335-5.6893-20.083 4.9866-11.9 4.3066-23.483-1.4733-20.174-1.224-26.271 1.5413-7.3442 1.5413-7.3442l4.7146-5.5308z"/>
   <path d="m568.72 110.1c-2.176-5.5308-3.6686-5.3795 0.52133-5.8708 4.0899-0.47961 11.018-9.5155 4.3519-3.8988-0.99322 0.83686-12.823 6.2723 0.408-3.7174 2.8787-2.1735 6.8906-0.70269 3.7626-2.2214s-2.9427-0.05314-6.5581-2.0233c-3.0774-1.677-6.6183 0.40183-12.38 6.3469-2.5384 2.6193-3.3657 0.77648-2.5271 3.0659s11.56 9.0216 12.421 8.3189z"/>
   <path d="m463.51 176.53c-0.51017 1.2849-1.3604 6.538-1.4927 14.266s-0.17006 18.537-1.0014 26.549-4.5537 6.2923-2.0218 18.48 7.8037 18.801 10.657 22.127 8.1816 6.9537 11.035 11.64 8.6351 11.886 13.604 11.659 13.113-8.6921 14.077-9.2401 1.9273-1.3038 1.9273-1.3038l3.609 11.13s1.0203 0.94479-5.3284 3.9303-6.2543 12.377-15.192 9.07-7.3124-2.7021-14.984-7.3883-5.0261-6.1978-12.509-7.5394-10.09 2.003-13.963-8.522-2.6264-33.257-0.98254-42.648 5.2528-22.033 5.6685-29.289 0.39679-16.156 0.39679-16.156l6.4999-6.7647z"/>
   <path d="m453.65 186.99c-0.37791 6.5569-4.3459 22.505-5.5174 28.967s-1.164 21.662-2.9098 28.419c-1.7562 6.7973-1.0624 10.192-1.1148 18.631-0.0593 9.5344 0.18157 12.693 7.2672 18.211s17.764 10.971 21.654 12.15c3.0775 0.93281 6.6424 4.694 8.465 9.5424 0 0 15.4 1.625 19.046-2.6076s13.718-15.079 13.718-15.079 3.5523 9.618 0.69913 13.964-5.8197 8.9188-8.9752 9.8258-16.798 8.8622-19.33 11.111-4.327 2.4187-5.3095 1.6062-17.346-12.339-21.843-13.832-10.43-4.6295-14.587-11.697-10.147-17.29-11.224-25.623 0.49127-15.562 0.60464-23.876 1.0203-13.605 2.8532-22.902 6.5438-16.377 9.6804-23.123 3.8546-13.7 3.8546-13.7l2.8154-1.0771 0.15245 1.0867z"/>
   <path d="m509.56 311.55c-2.8532 1.0582-23.827 17.214-28.362 19.33s-5.8197 7.3883-6.9156 8.5409-4.3459 5.6121-7.7092 10.714-6.2732 8.8433-10.014 11.999-10.657 6.5946-10.657 6.5946-2.0029 3.5713 2.1729 1.1338 14.209-8.0874 16.647-11.904 3.0043-4.7807 8.9941-7.3883 11.016-0.13227 13.945-1.3983 8.7106-6.5758 8.6728-7.5961 1.0203-4.9885 1.0203-4.9885 0.69912 2.3998-4.2703 5.5365-7.0668 4.4405-12.093 4.6862-11.753 4.4216-13.283 5.083 0.7558 0.13227 5.6118-6.5569 2.3619-7.3316 10.865-9.5991 15.702-7.2182 16.817-8.3898 2.6831-1.7384 2.6831-1.7384l7.0101-13.492-1.1337-0.56687z"/>
   <path d="m464.09 359.55c5.4796-2.173 14.606-3.7414 18.083-5.631s11.035-5.0452 11.715-6.708 2.7587-4.8373 2.702-3.5524 0.62354 8.0874-2.1162 8.4087-0.92586-1.4361-4.0436-0.0378-9.6554 3.7792-13.434 5.5743-12.452 3.439-12.905 1.9463z"/>
   <path d="m449.75 373.93c7.917-5.1208 16.514-4.4027 21.729-8.8622s11.677-5.442 16.703-7.5206 8.5784-2.362 8.5784-2.362l-1.0014 4.0248s0.17005-1.4928-1.3416 0.18895 0.3779 2.6832 0.3779 2.6832l0.62354 3.7414s-1.7762 0.30233-4.8749 0.18896c-15-0.54879-16.193 1.1148-20.917 2.8911s-9.5042 1.625-14.493 3.5524-5.4985 2.0596-5.3851 1.4739z"/>
   <path d="m452.65 386.24c2.5886-5.4798 5.3284-5.4042 10.336-8.8244s23.241-7.1238 25.924-7.3316 4.9316 2.9289 4.9316 2.9289l-1.2093 2.8155s3.42-0.64246-2.6453-1.7384-6.9912 0.62357-6.9912 0.62357 2.6642-0.13227 5.5363 1.4172 2.9098 4.4027 2.9098 4.4027-0.0412-1.1104-6.0842-1.9274c-12.814-1.7323-15.513-0.4724-21.578 2.3053s-11.167 5.6877-11.129 5.3286z"/>
   <path d="m488.61 384.3s-7.388-2.9666-11.904-2.0219-11.715 7.1615-11.715 7.1615 0.75581-1.6439 5.763-1.814 8.8807 3.2879 10.959 3.3824 4.5915 0.24565 4.5915 0.24565l2.3052-6.9537z"/>
   <path d="m484.21 393.57c-2.7209 1.5306 0.0756 1.2471-4.1947-0.24564s-5.234-2.9856-10.392 0.51018-6.0653 3.3068-8.9941 2.6076-7.0479 3.5524-7.0479 3.5524l0.43459 3.3068s0.96365 1.8518 6.8022-2.0218 8.5595-3.7981 12.376-1.9085 8.5028 7.3883 8.5028 7.3883 0.11337-1.3038 1.3416-6.1978 1.8517-6.9915 1.1715-6.9915z"/>
   <path d="m481.14 410.57c-2.0974-2.532-3.2877-5.6499-8.8807-7.7851s-11.035 2.0408-13.869 3.3635-1.1337 2.9289-1.1337 2.9289-2.0218 0.4724 4.7805-0.81252 7.2935-0.64246 11.677 4.5161 7.029 7.1993 7.029 7.1993l0.39679-9.4101z"/>
   <path d="m479.96 423.05s-5.8953-10.582-8.9941-11.205-10.638-0.68026-11.715-1.2282-2.2863 0.26455 2.513 3.9114 10.449 6.2923 13.038 8.5409 6.0275 6.2734 6.0275 6.2734l-0.86918-6.2923z"/>
   <path d="m480.54 433.18c-1.8895-1.5117-6.1976-5.083-6.1976-5.083l4.4404 0.86921 1.0392-0.35902s1.8328 0.77473-4.0058-1.4928-9.7499-4.0437-12.943-7.2182-6.6322-9.6936-7.2746-10.922 1.9273 9.1834 4.5159 14.134 13.945 11.451 16.099 12.887 4.138 2.1919 4.138 2.1919l0.18895-5.0074z"/>
   <path d="m479.54 440.82c-8.4461-4.5161-15.135-7.6528-18.801-12.452s-5.9897-9.0511-5.9897-9.0511 0.60464 7.804 3.6468 11.829-0.20784 2.4565-1.0392 1.3983-3.4767-3.2123-3.4767-3.2123l0.64244 4.3838 2.5886 1.7195s4.4214 0.68025 7.747 2.3809 5.7063 4.1004 8.6917 3.9681 6.7644-0.0567 6.7644-0.0567l-0.7747-0.907z"/>
   <path d="m479.43 443.01c-4.9316-0.22675-14.852-1.7006-18.536 0s-4.5348 2.3242-4.5348 2.3242-1.5683-8.4087-1.7006-9.618-0.96365-1.6817 3.25 0.39681 2.7398 4.3838 6.4243 4.2327 9.5231 1.625 11.564 1.814 4.0813 1.3416 3.5334 0.85031z"/>
   <path d="m479.12 444.6c-6.2543 0.0756-14.19-0.11337-18.366 0.75584s-4.1947 1.6439-4.1947 1.6439l1.7384 3.2879s-1.7761 0.52908 4.7994-1.9274 11.847-2.4943 13.737-1.3227 2.8343-2.1541 2.2863-2.4376z"/>
   <path d="m479.67 447.66c-2.2442 3.0216 3.3917 5.9684-4.1947 5.8955-9.3626-0.0899-13.926-2.5887-16.193-3.2501s-1.266-0.0189-1.266-0.0189 2.0029-2.551 6.3299-2.2108 8.3516-0.4346 10.052-0.81252 5.9898-0.0189 5.2717 0.39681z"/>
   <path d="m478.93 453.64c0.17005 1.0771-0.30232 6.0089-0.30232 6.0089s-15.267 1.2849-17.327 0.60466-3.2122-5.2719-3.2122-5.2719-2.1918-3.0611 0.32122-1.3794 7.3502 3.2312 11.413 2.3809 9.2775-2.0596 9.1074-2.3431z"/>
   <path d="m478.27 468.58c-2.4564-0.907-7.7659-3.6469-11.337-2.8344s-7.1424 2.4376-7.9548 0.41571-0.81249-6.3679-0.81249-6.3679-2.1351 0.37792 1.3982 1.6439 10.506 1.0204 13 0.60467 6.67 0.13227 6.67 0.13227l-0.96365 6.4057z"/>
   <path d="m476.99 471.11c-6.9156 0.69915-13.17 3.08-15.532 2.3242s-2.5886 0.30233-2.5886 0.30233l1.436 5.3853s-0.60465-0.11338 4.1758-0.11338 9.9766 0.24565 11.507 1.1338 3.3444-0.35902 3.3444-0.35902l-0.81248-9.1267-1.5305 0.4535z"/>
   <path d="m459.45 484.55c2.2296 0.37792 5.404 2.0408 6.8211 0.9259s5.1584-5.1964 6.3865-5.272 6.4054-0.0567 6.4054-0.0567l0.85028 6.349s-1.9651 1.5495-6.1409 0.11338-3.4389 4.2138-6.0653 4.0059-7.4447-2.0785-7.4447-2.0785l-0.81249-3.987z"/>
   <path d="m460.43 494.52c2.3619 1.1715 6.0653 0.56687 7.4825-1.266s2.1352-5.2153 5.2906-5.2719 7.199-0.75584 7.199-0.75584l1.4738 6.2734s0.7747-1.2849-3.5901-0.22675-9.2019 4.4405-12.792 4.365-5.0261-2.4565-5.0639-3.1178z"/>
   <path d="m460.34 502.57c1.5116 0.49129 5.8197 0.96369 8.7484-2.4376s8.3149-5.8301 10.392-6.2167c1.5193-0.28275 4.2842 3.3359 1.9651 3.0422-6.0433-0.76528-10.147 2.7021-14.228 5.4609s-6.6322 0.71804-6.8778 0.15117z"/>
   <path d="m460.83 509.38c7.5062 1.1169 10.515-6.0252 13.699-8.2764 4.0456-2.8608 7.2398-2.9987 7.1612-2.9289l1.9462 3.0233s-7.7659 0.86921-11.148 4.0248-10.109 9.8636-11.715 7.4639-0.41569 0.0378 0.0567-3.3068z"/>
   <path d="m462.11 515.03c9.9388-2.6265 9.901-8.5787 13.963-10.941s7.747-1.9652 7.747-1.9652 0.26453 1.9463-1.1715 1.3605-17.667 13.284-18.933 13.454-1.0959-0.52909-1.0959-0.52909l-0.51016-1.3794z"/>
   <path d="m392.67 533.73c0.69912-2.1352-2.3619-2.3053 0.64244-5.8199s7.3691-4.2327 7.4636-6.2167 1.8517-3.3257-3.4389 1.6628-5.952 5.7443-5.952 5.7443l1.2849 4.6295z"/>
   <path d="m406.97 528.67c-0.94475-1.096-2.2485-2.9288-6.84-1.3416s-2.9854-0.81252-2.9854-0.81252 5.404-2.91 7.5392-2.173 3.1177 4.7051 2.2863 4.3272z"/>
   <path d="m408.94 522.9c-1.5116-3.0611-3.4011-5.1586-7.0101-5.3475s0.18895-1.1148 0.18895-1.1148 5.5741-0.17007 6.4054 0.9259 1.4549 5.801 1.4549 5.801l-1.0959-1.1526 0.0567 0.8881z"/>
   <path d="m389.07 525.47c2.3241-4.0626 6.4243-6.0278 8.1627-7.7662s2.154 0.37792 2.154 0.37792-4.0058 1.4361-6.311 4.6862-2.3619 4.9507-2.3619 4.9507l-1.6439-2.2486z"/>
   <path d="m388.75 521.39c2.343-3.0989 5.8197-4.8184 7.8415-6.6514s2.4186 0.17006 2.4186 0.17006-1.984 1.2093-4.9694 3.1745-5.3284 3.7603-5.2906 3.3068z"/>
   <path d="m389.11 515.38c4.1758-5.6121 7.3502-5.1208 9.2208-6.5191s10.94-1.1716 10.94-1.1716l0.4157 4.1382s2.872 1.1148-1.7195-0.52909-6.5188-2.0974-10.43-0.13227-8.1249 5.7821-8.1249 5.7821l-0.30232-1.5684z"/>
   <path d="m391.81 507.16c3.1366 0.49129 3.7034-0.85032 8.1249-2.721s7.558-4.0815 8.5784-3.628 1.7761 2.3242 1.7761 2.3242l-0.24564 3.1934s-0.47237-1.1715-5.6874-0.86921-9.7121 2.0596-11.602 3.4202-0.56686-2.003-0.94476-1.7195z"/>
   <path d="m394.7 501.94c5.4229-2.4565 11.28-9.5235 12.962-10.393s3.4767 0.62356 3.4767 0.62356-0.62354 5.3475-2.9854 5.7632-8.7106 1.9652-11.847 4.0248-1.4927 0.13228-1.6061-0.0189z"/>
   <path d="m397.6 490.87c2.6075-2.8155 4.7994-4.5539 7.4636-6.8781s3.5523-2.0974 1.5305-2.0974-3.6468 1.5684-5.5363 3.0233-1.0959-1.625-0.94476-3.6469-1.4549-1.8896 0.88807-1.9841 5.7063 0.20785 8.7106-0.22675 6.0842 0.0378 6.0842 0.0378-3.5523 5.9522-3.8924 9.2779 0.3968-0.47239-3.6845 0.69915-5.6496 4.5539-8.3705 6.349-4.0058 1.8896-4.0058 1.8896l2.7398-8.0874-0.98255 1.6439z"/>
   <path d="m399.52 467.9c1.7761 1.8329 2.6264 2.3242 7.8037 2.721s8.3705 1.3227 9.2586 1.7384-1.0203 6.0656-1.0203 6.0656-0.68023-0.24565-5.952-2.3053-9.2019-1.1526-9.2019-1.1526l-0.88807-7.067z"/>
   <path d="m398.81 455.39c2.1918 0.73694-0.85028 4.2138 8.7295 4.724s11.961 1.0015 14.625 0.51019 1.6817 2.1541 1.6817 2.1541l-5.215 8.3142s-7.2935-2.8344-11.715-5.0641-5.8575-0.58577-6.9534-2.362-0.66132-8.5031-1.1526-8.2764z"/>
   <path d="m399.43 452.57c4.3081 3.1934 7.917 3.6847 13.586 5.083s10.695 3.08 12.244 1.5495 4.2325-8.6732 3.6279-10.96-2.5508 1.3983-3.5334 1.1338-7.029 5.5743-13.17 3.7792-7.1234-0.18896-10.751-1.1904-1.1148 1.2471-1.1148 1.2471l-0.88807-0.64246z"/>
   <path d="m400.16 445.88c9.9199 3.5902 13.907 0.94479 18.706-0.64246s9.9388-4.1193 9.9388-4.1193l-0.22674 5.6121s-1.7384 4.9129-7.1046 4.4594-11.261-0.43461-15.57-0.24565-7.0668 0.15117-7.0668 0.15117l1.4171-6.1412-0.0945 0.9259z"/>
   <path d="m399.98 443.46c4.327 2.173 14.379 3.628 15.815 2.2486s3.7223-1.1715-2.5697-2.6643-8.0871 0.13227-8.5028-1.9274-3.4767-1.3983 2.6831-2.4754 13.85-3.439 15.74-5.3286 5.0072 1.2849-0.81249 3.8737-10.166 4.6484-11.413 4.7429-0.0189 0.24565 3.061 1.3605 4.138-0.79362 7.6525-1.096 7.9737-2.3431 7.9737-2.3431l-1.0014-10.827s2.9854-7.9174-1.4927-4.4594-3.9491 4.7806-10.562 6.538-11.394 7.256-12.698 5.6688-0.54795-1.3794-1.8517 0.0945-2.4186 7.086-2.0218 6.5947z"/>
   <path d="m403.43 427.18c5.4607-0.0945 12.338-3.1745 16.118-5.9522s9.9577-7.0293 9.9577-7.0293l-0.0378 8.4653s0.56686 0.96369-7.4069 3.817-15.078 8.0496-17.043 7.445-1.5494-4.2327-1.5494-4.2327l-0.0378-2.5132z"/>
   <path d="m403.41 411.84c2.154 3.9303 1.0581 5.0641 4.4404 2.4565s1.0959-4.3272 6.5377-4.4405 8.7106 0.83142 10.732-1.266 4.4026-2.4187 4.4026-2.4187l-0.0378 9.3912s-5.6874 1.7762-10.619 2.4942-7.9926 5.6688-10.732 5.0641-5.0828-0.68025-5.0828-0.68025l0.35901-10.601z"/>
   <path d="m403.16 400.76c8.6351 0.60466 15.248-2.0219 20.331-2.3998s7.6147-0.62356 7.6147-0.62356l-1.4927 8.1441s-1.7006-0.4535-7.917 0.51018-10.732 0.9448-13.397 2.3809-5.3473 1.0393-6.1598-0.62356 0.7936-7.8985 1.0203-7.3883z"/>
   <path d="m431.73 394.6c-2.7587-0.32123-18.706 3.8926-21.692 3.9492s-5.7063 0.22675-6.4243-0.81252-1.077-5.0452 0.75581-6.1601 3.7223-3.4012 3.7223-3.4012-3.25 1.4739-3.6279-2.2297-1.3982-4.1193 1.7384-6.8403 2.7209-3.4768 2.7209-3.4768l-4.0058-2.5887 1.1715-3.4013 19.33 1.9274s-6.7456 2.362-11.866 5.8577-5.2528 6.3679-5.2528 6.3679 12.527-6.9348 18.177-7.5395 10.789 0.0756 9.4476 2.7399-0.79359 4.6295-3.2311 3.5713-10.43 0.52909-15.891 2.721-8.0871 5.3475-8.2383 6.3112 17.686-7.1237 20.785-6.3868 4.9883 2.173 4.9883 2.173l-2.6075 7.2182z"/>
   <path d="m408.98 359.05c11.98 2.532 12.905 6.0278 17.988 5.6121s9.013-1.0393 11.318 1.6628 4.6104 6.1412 4.6104 6.1412l-3.1177 3.6658s3.5712-1.8896-3.0421-2.6076-4.8938-1.0015-11.073-3.1556-10.241 1.1338-13.416-2.532-4.6104-3.3635-4.6104-3.3635l1.3416-5.4231z"/>
   <path d="m406.72 355.9c1.436-1.1526 2.2863-1.9463 6.0842-2.0596s10.317-0.4913 12.282 1.9841 3.0232 2.2486 6.4432 2.6265 3.3822 0.81252 9.0885 3.1934 8.4461 3.6469 8.4461 3.6469 1.5116-1.7762 0.34011-3.6469-4.4404-0.30233-6.9156-2.7399-8.106-9.1645-10.619-12.925-0.58575-6.9726-7.5958-10.072-8.5784-6.349-14.266-8.6354-8.7295-5.7821-12.112-2.91-3.4843 4.7289-3.7677 6.165-3.1177-4.8373-3.8924-10.695 0.92241-25.475 1.4893-32.485 6.439-27.895 7.875-33.677 5.5741-17.139 6.6322-20.237 1.2849 0.83142 0.47238 4.4027-2.6831 8.4276-4.3459 19.349-2.0029 15.74-4.3459 20.767-5.1773 7.9552-5.8008 13.794 0.26338 11.936 0.11222 14.241 1.217-1.5752 2.7853-7.3195 4.7427-15.986 6.1976-19.293 4.7591 0.1952 5.3638 7.7913 8.1816 19.198 10.732 20.842 9.7499 4.176 10.808 6.2167 2.9854 0.62357 1.3038-1.1148-2.872-0.9448-7.4825-7.9174-15.56-34.359-15.692-35.342 1.5706-17.1 2.3264-25.622 4.4781-21.296 6.3865-25.245 8.3327-12.641 10.959-16.194 7.199-7.6906 7.199-7.6906l-6.8967 3.0422s1.0959 1.4928-1.4171 3.2501-0.83139-0.83142-7.5392 4.8562-7.8604 11.338-9.731 16.25-4.5915 9.3912-7.2935 16.968-5.9518 15.486-8.4082 21.665-5.2717 15.721-5.6685 19.727 1.0948 42.086 3.1543 46.98 2.6453 10.128 4.0436 10.922 1.6628-2.9478 3.0421-5.083 6.3299-3.7792 10.506-2.1163 7.8793 4.176 7.8793 4.176-4.3648 0.92589-8.824 2.3242-7.4636-2.1352-7.7092 2.3431 2.7965 7.1237 2.7965 7.1237-1.1715-1.9463 2.6264-3.7036 11.715-4.894 16.741-2.362 12.924 12.981 12.924 12.981-5.1773-3.6091-10.184-6.1601-8.5217-1.9841-13.378-0.907-5.045 1.3605-5.3851 3.7603 2.6831 5.083 2.2298 4.762z"/>
   <path d="m392.36 326.56c0.13226-3.0044 0.26453-5.7821 3.6468-8.2197s11.696 3.2312 16.533 5.4042 8.0871 1.1716 12.301 5.7254 10.619 11.734 14.398 16.761 8.2383 7.2371 11.016 8.1252 14.738-1.2093 14.738-1.2093 4.3081-1.3038-1.6817-1.7006-7.4825 2.2297-9.4286-0.18896-3.5523-2.1541-7.7281-8.8622-5.763-10.676-11.356-14.871-10.052-10.676-12.811-13.624-13.264-10.941-15.57-15.268-2.7776-7.5206-4.0813-8.9-2.3808 4.6106-5.2717 9.1078-2.1729 6.4435-3.5334 11.923-1.9651 9.5235-2.4375 12.868-0.15116 3.9681 0.51016-0.0189 1.4738-8.6921 3.3633-13.057 4.327-7.6717 4.686-8.7299-0.7936-3.8548 2.8532 1.7006 11.394 7.9174 12.452 8.9944 6.9156 9.6936 6.9156 9.6936-3.9491 1.5306-8.0304-2.2675-10.468-8.8244-11.753-9.0322-4.7427-1.1149-6.7456 0.60467-3.3255 9.5046-3.7601 10.733 1.0203 4.4594 0.7747 4.3083z"/>
   <path d="m439.76 191.12c-4.5726 4.724-10.109 5.8766-13.661 13.322s-4.3648 6.6514-7.3502 15.684-5.404 9.2968-5.8386 19.784-0.98255 13.983-1.0392 20.785 1.3665 12.526 3.445 20.273 9.0758 18.192 11.192 25.467 1.1715 5.7066 4.1758 10.657 13.888 13.775 15.418 14.172 6.9345 0.75583 9.5042 2.3242 10.468 8.9188 11.318 6.7836 1.2471-3.0611 2.891-3.0611 5.8764 0.75583 5.6874-2.91 0.22675-6.0089-3.3633-7.2371-7.1801-1.625-11.847-4.1382-17.024-16.402-20.01-22.41-4.1191-8.3898-5.8764-15.343-3.8226-20.152-4.7484-27.672 1.2162-22.261 1.972-27.458 4.2892-17.044 6.1031-21.126 7.8415-16.269 8.0304-17.611 0.88807-3.7036 0.88807-3.7036-0.83139-3.5146-3.0799 1.625-0.0945 3.0611-4.2514 8.2575-7.8793 10.865-8.654 12.622-2.4186 2.8722-6.2732 16.25-4.0436 10.846-3.6656 20.332 0.49127 12.037 2.0029 19.444 6.9498 21.979 7.1388 23.094 5.4295 15.924 6.7899 18.286 9.5231 12.358 10.411 14.059 4.2892 5.1775 2.2674 4.7051-9.1641-6.7647-11.243-9.9014-10.45-21.097-11.698-22.59-5.8504-19.064-7.5888-22.012-2.8979-10.673-2.4633-19.667 6.3734-26.935 6.6002-28.9 4.2325-8.9944 6.2732-14.569 11.073-17.8 10.542-17.617z"/>
   <path d="m542.47 94.247c6.4259-1.8325 20.837-1.3109 19.068-12.503-0.9225-5.8376 6.3503-16.291 7.9538-16.915 1.5104 1.2533-7.7278 14.861-6.2754 15.831 1.4817 0.98983 8.2194-0.64246 8.2194-0.64246s-5.6685 6.4624-6.311 7.6717 5.593 3.2501 5.593 3.2501-3.7223-0.39681-1.3982 1.4928 6.7078 0.83142 6.2543 3.3824-0.43458 3.8736-0.43458 3.8736-20.086 1.5495-21.295 1.1526-10.298-6.349-11.375-6.5947z"/>
   <path d="m538.52 94.295c3.59-9.4021 16.695-23.61 3.3297-30.735-4.8057-2.5619-1.1337-10.374 0.81249-10.355s6.0275 14.002 4.7238 20.2c-1.1533-8.4938-2.3145-17.877 10.26-20.899 1.8813-0.45208 1.8139 9.2779 3.0799 7.6906s3.1366-0.39681 2.2485 2.8722-22.615 31.723-22.615 31.723l-1.8398-0.49588z"/>
   <path d="m506.49 120.28c0-1.0771-2.4375-4.2894-3.968-10.015s-1.3227-9.6747-1.3227-9.6747 3.1177 6.3301 4.4026 10.808 3.6468 7.2938 3.6468 7.2938l-1.6628 2.2675-1.0959-0.68025z"/>
   <path d="m502.24 128.46c-1.1148-2.4187-3.4578-8.0118-4.8182-11.489s-3.0043-6.0845-3.0043-6.0845 3.8357 8.0685 4.5537 12.169 0.60465 8.2386 0.60465 8.2386l2.6642-2.8344z"/>
   <path d="m496.96 134.53c-1.795-3.8926-5.045-12.452-5.2528-14.436s-2.5886-4.9696-2.5886-4.9696 0.94476 2.7399 0.83139 5.0263 1.2471 8.0874 2.8532 11.489 3.779 2.9855 4.1569 2.8911z"/>
   <path d="m489.86 141.01c-1.077-2.1541-3.9113-6.2734-5.4229-12.66s-0.68022-10.034-0.68022-10.034 5.215 9.2023 5.763 12.358 1.436 5.2342 1.8139 7.445-0.85028 2.2864-1.4738 2.8911z"/>
   <path d="m486.14 145.75c-2.7209-5.272-5.1017-8.7677-6.9912-14.115s-2.0596-5.3097-2.0596-5.3097 3.3444 10.279 4.9505 14.455 4.4404 4.9318 4.1002 4.9696z"/>
   <path d="m481.7 153.57c-1.3793-2.1541-5.215-12.679-5.7252-14.361s-1.1526 2.3998-1.1526 2.3998-3.8357-3.2123-3.6468-4.8751-1.077-6.5758-0.75581-2.0785-0.13226 3.4012 2.7209 9.9392 5.952 10.336 5.952 10.336l2.6075-1.3605z"/>
   <path d="m474.25 161c-3.7979-3.628-8.3327-7.086-9.4853-9.6747s-1.9084-3.987-0.73691 0.0189 1.5116 5.8199 4.856 9.807 5.0639 2.6076 5.0639 2.6076l1.1904-2.91-0.88807 0.15117z"/>
   <path d="m466.09 171.01c-3.6468-3.7603-5.7252-9.2779-7.8982-13.019s-4.2136-13.038-4.2136-13.038 1.3038 3.1367 0.94475 8.8244 1.266 4.9507 3.9869 11.81 5.3662 9.2401 5.3662 9.2401l1.8139-3.817z"/>
   <path d="m459.1 178.7c-4.0058-6.708-7.5958-9.8259-9.8254-14.418s-0.66133-11.602-0.66133-11.602-1.0014-3.8736-1.2282 4.0626 0.62354 11.886 3.7034 15.835 8.2572 6.0467 8.0115 6.1223z"/>
   <path d="m453.11 185.02c-4.7994-7.4261-5.215-10.506-5.215-10.506s-0.0945 1.6439-3.4956 0.96369-3.061-0.60467-0.90696 1.1716 1.3226 0.77473 4.2892 5.7254 6.7267 2.0219 6.7267 2.0219-7.1424 4.4783-10.241 1.0393-4.2136-5.1775-4.2136-5.1775-0.86918-0.68025-2.4753-0.37792 1.3604 3.4013 2.702 6.3868-1.5116 2.721-1.5116 2.721 1.3604-0.24565 4.3837-0.52909 11.224-2.7966 11.224-2.7966l-1.266-0.64246z"/>
   <path d="m414.9 205.69c-4.4214 4.9696-8.3138 8.881-10.714 12.188s-9.1074 19.841-9.8066 20.956-4.138 9.1456-4.7049 7.2182 0.54796-4.2327 2.4564-8.0874 7.9926-14.115 10.336-18.65 5.045-9.2968 6.0653-10.242 0.68023-1.7006 0.68023-1.7006-9.1074 9.618-12.074 14.795-5.3473 10.053-8.1627 15.608-5.6592 12.954-7.6243 19.265-4.5159 9.8447-5.0261 17.252-1.4498 9.5619-2.8481 19.558-0.0378 18.178 0.0189 23.299 0.7936 11.451 1.7572 15.23 1.5494 6.3868 2.9098-2.1352 4.6293-21.182 5.4985-29.648-2.1729-19.746 0.79359-29.723 5.5292-16.965 8.2312-22.539 8.8429-13.303 9.6554-17.101 2.2107-10.317 4.2892-14.247 11.394-12.83 12.527-13.586-1.8895 0.88811-4.2588 2.2906z"/>
   <path d="m402.44 211.6c-3.5334 3.1556-15.267 15.57-18.801 22.524s-5.8764 8.4842-11.167 20.842-8.2818 18.843-9.51 31.843-2.3052 18.764-1.3604 27.153 3.6583 12.872 5.8312 21.337 14.152 20.767 15.966 21.692-5.5174-7.9174-9.4098-13.095-6.1787-18.669-6.8211-24.772 0.69336-6.0832 1.8271-21.162 7.3941-40.503 8.3199-43.187 15.891-28.174 16.609-29.496 9.6743-13.907 9.6743-13.907l-1.1587 0.22732z"/>
   <path d="m397.67 214.61c-2.0974 1.5117-19.33 18.159-22.372 25.679s-9.2019 17.516-12.868 26.889-3.9401 21.825-6.0185 33.219-4.0436 27.116-1.1715 35.09 13.586 21.919 13.586 21.919-9.5231-10.374-13.926-15.003-6.2921-7.7851-7.2557-15.136 2.0665-37.153 2.7089-41.537 4.0624-12.736 6.6511-20.086 13.394-25.043 16.058-28.766 13.453-13.359 15.532-15.419 9.5987-8.8055 9.5987-8.8055l-0.52364 1.9567z"/>
   <path d="m392.78 216.62c-4.7427 3.628-12.131 7.993-18.706 15.873s-7.9359 7.3883-13.831 18.121-6.6516 19.979-11.186 25.837-3.5244 25.592-5.565 32.3-2.0974 18.764-1.0959 26.36 2.3754 15.599 4.2838 21.362 5.045 11.47 5.045 11.47-6.1787-8.2008-9.8066-16.024-6.1787-8.9755-7.6147-20.918 1.3604-21.725 0.68022-28.036 3.6648-20.972 6.1968-29.116 5.9898-10.978 9.0508-18.556 15.419-21.794 20.275-25.138 7.7848-5.5365 13.34-9.5613 10.997-5.8577 10.997-5.8577l-2.062 1.8835z"/>
   <path d="m387.27 217.67c-5.2906 3.4202-9.1074 6.3868-12.735 8.1252s-2.7965-0.20785-2.7965-0.20785 3.2878-1.6817 6.8967-4.6295 9.0696-4.3838 9.0696-4.3838l-0.43459 1.096z"/>
   <path d="m380.94 218.37c-11.772 9.0133-9.6176 4.6295-19.897 16.458s-19.333 27.377-20.315 28.511-6.1582 20.164-9.4648 30.557-1.6107 33.7-1.7241 40.144-0.0756 11.319 1.8328 17.214 8.8051 16.836 8.8051 16.836-11.658-15.476-13.718-21.409-4.7049-12.622-4.3648-23.922 0.21211-24.864 1.2702-33.311 6.3036-19.206 11.273-28.975 9.6554-14.777 14.322-19.746 15.324-13.265 18.706-15.778 14.579-7.5542 14.579-7.5542l-1.3055 0.9752z"/>
   <path d="m377.38 218.38c-9.2056 5.1174-20.242 12.867-26.535 18.653s-20.508 26.421-24.275 31.846-7.6424 28.366-7.7359 30.023-0.77287 24.192-0.98665 28.427 0.81501 19.267 2.0576 23.516 6.0391 13.067 6.0391 13.067-8.9117-12.693-11.945-20.657-2.9151-33.897-3.3293-35.38 0.51178-16.266 2.409-24.67 10.455-22.29 11.043-23.733 20.849-23.637 21.637-24.238 19.627-11.892 20.255-12.667 12.078-4.3291 12.078-4.3291l-0.71239 0.14203z"/>
   <path d="m365.96 219.82c-5.3443 2.7658-12.76 8.8452-17.663 11.518s-2.7657 4.5562-7.0278 7.2552-13.71 12.629-15.728 14.432-6.5602 8.8452-10.087 14.778-3.6305 10.606-5.8216 17.969-1.1357 6.4268-1.9106 15.285-0.11609 11.254-0.79749 19.578-0.17369 13.041 1.296 21.619 3.5273 13.201 5.2241 15.726-3.554-0.88186-6.0926-6.5604-6.0792-13.869-6.9476-24.812 0.42918-28.072 0.18868-28.807 1.789-14.178 3.7931-21.046 10.441-21.723 11.096-22.858 6.604-11.762 10.238-15.837 10.181-9.7538 13.187-11.651 4.9124-3.1362 8.8538-4.5391 9.8737-2.8727 9.8737-2.8727l1.7636 0.1737s1.0288 0.85513-3.3936 1.59-8.8716 3.2602-11.704 5.0239-2.6098 0.75987-7.3262 6.3449-7.0412 5.9592-10.341 9.834-6.1994 9.1125-6.7205 11.224 0.49435-1.5366 4.0216-5.2778 13.321-11.611 16.768-14.537 6.5335-5.732 9.7802-8.5513 11.317-5.6118 11.317-5.6118 2.1511-1.2426-1.0154 1.3228-10.568 5.8924-13.481 8.3375 7.2416-2.218 9.1655-4.2356 7.8428-5.3045 7.8428-5.3045l1.6495 0.49117z"/>
   <path d="m305.05 353.06c-0.66804-0.0668-5.4111-14.003-7.1881-20.79s0.20042-28.337-0.29393-32.212 3.3514-20.904 5.0215-26.997 8.6452-18.223 13.215-25.879 15.295-19.164 16.417-20.54 10.542-4.4761 13.347-5.9726 9.1656-1.8706 9.1656-1.8706l-3.4204-0.98875s-2.0308 0.22715-4.6095 1.2292-8.5777 3.3804-9.2056 2.699 1.4029-1.7637 2.2847-2.0844 10.301-2.3382 10.301-2.3382l-4.2888-0.72152s1.0288-0.0267-3.3803 0.92194-6.5602-0.32067-11.09 3.9416-5.0771 3.2468-9.2457 8.578-14.911 22.848-15.739 24.451-3.5139 7.8699-4.2755 9.0323-1.6568-0.4142 0.12025-5.104 5.1439-9.8206 9.5263-17.891 6.8808-10.449 12.078-15.807 14.924-7.6828 15.793-7.7229 6.6671-0.25387 6.6671-0.25387-2.8726-3.4873-8.9651-1.7503-5.812-2.0042-12.252 2.9395-9.366 3.7813-14.309 13.148-6.3063 11.117-7.9363 13.695-1.0956-12.52-1.0555-17.797 0.46763-6.7074 2.9394-10.034 10.742-3.5007 10.742-3.5007-4.0216-1.737-8.3505-0.61463-6.6671 0.56118-9.8737 2.8059-6.2395 1.6167-5.4379 8.3108 1.4831 11.21 1.443 16.154 3.5139 10.008 4.369 10.956 1.5307 2.2784 0.92942 8.2242-0.90854 7.0147-3.0997 12.172-2.3233 10.073-3.9266 16.152-1.9746 13.553-1.4001 20.354 0.76564 19.216 2.743 26.498 5.6784 13.495 8.4708 16.688 4.222 2.2447 3.7699 1.918z"/>
   <path d="m324.06 213.3c-3.0329 0.49438-6.0257-1.0689-10.301 2.1378s-5.9322 4.917-7.4821 9.0991-2.9795 6.9212-0.93526 6.7208 5.6917-5.2109 8.0432-8.1638 6.8408-5.9191 10.101-7.3755 7.8428-1.59 7.8428-1.59l-7.2683-0.82841z"/>
   <path d="m295.2 209.8c-0.78829-0.16034-10.368 1.0288-14.35 5.2778s-3.3135 2.2447-2.9127 8.3375 1.6167 13.308 1.8972 18.773-1.3762 7.282 0.78829 13.134 3.2424 2.4978 3.6566 9.9401 0.45053 8.1964-1.5402 14.824-3.3803 4.7967-3.1799 15.232 2.619 15.711 3.0465 23.407 4.3022 19.187 7.2416 24.318 4.8099 5.4381 4.8099 5.4381-7.2817-17.25-8.0432-25.28-2.8868-24.533 0.35993-33.752 6.8074-21.782 7.1815-24.04-2.7924-13.602-4.7698-14.871-0.68849-16.955-1.5837-21.484-3.7678-5.9592-1.0956-10.328 15.312-7.5759 16.207-7.4957-7.3485-1.3094-7.7136-1.4298z"/>
   <path d="m273.24 213.63c0.50771 3.6209-1.2426 10.596-0.32066 19.481s-1.3227 20.991 1.2826 26.269 4.4132 6.3394 5.1747 9.2122-0.41418 10.796-0.6814 14.911-1.9812 13.671-1.9812 17.265 1.895 11.68 2.8971 16.984 5.518 19.508 5.6383 20.349-0.64132 0.1737-3.6742-5.732-8.8182-21.592-8.9918-26.629 1.0956-22.42 0.62796-26.736-1.3628-6.6139-1.3628-6.6139 0.97534 10.569-0.37411 17.637-2.1377 6.026-0.33402 15.085 6.293 19.588 7.1748 22.434-1.5899 0.26723-2.4183-1.6034-5.9589-19.227-7.9764-23.195-2.2686-6.2793-8.0939-10.689-11.437-22.258-12.212-24.783-0.97534-10.101-3.4204-13.041-8.8132-5.9552-11.018-6.0353-2.1645 0.22714-1.6968-0.5879 8.4975-8.0436 10.114-9.7538 5.5982-6.1062 6.5602-7.6294 0.53444-2.8861 3.3269-0.9353 4.2354 3.3003 5.2374 10.462 0.76157 14.39 2.9394 20.697 5.2314 10.373 5.8995 15.971 2.0843 14.51 2.6454 18.225 1.5098 6.1329 1.5098 6.1329-0.22714-5.732-0.84174-13.655-0.54779-13.188-1.0021-17.811-4.0224-22.712-4.3832-26.694-0.58788-14.297-1.3895-16.568-1.8705-6.3199-1.8705-6.3199 3.3423-2.9294 6.2015-4.1185 6.8007-1.9908 6.8129-1.9844z"/>
   <path d="m267.09 335.69c-1.8438-4.4761-6.333-9.1258-3.9014-13.321s7.8161-7.6694 2.592-11.224-11.29-11.398-13.361-12.6-6.7526-14.349-10.534-18.183-3.4605-9.2594-11.704-9.1258-14.964 2.1512-17.089 3.8882-2.1377 3.2869-2.1377 3.2869-2.3248 16.702-2.2713 18.773-0.6146 4.0218-0.18706 5.4247-2.3114-2.9662 2.7523-1.3762 19.868 3.0865 19.868 3.0865 1.4162 0.13362 2.9928 1.3228 4.2621 3.8748 7.9631 5.732 5.999 6.4402 9.0186 6.801 7.6825 3.0063 9.2056 6.7475 2.1497 9.9744 3.0582 10.803 4.3556 0.42757 4.3556 0.42757l-0.62097-0.46231z"/>
   <path d="m211.8 330.2c1.777-3.661 4.1819-7.9233 11.584-7.6561s15.539-1.8439 20.723 2.1111 11.971 8.2574 13.922 11.451 5.3577 11.624 7.3886 14.163 3.701 3.3804 3.701 3.3804 0.72149 2.2848-5.478-2.2714-7.8295-9.0056-13.201-10.809-18.224-6.0794-23.876-3.0598-11.21 8.5914-11.21 8.5914l-3.554-15.9z"/>
   <path d="m218.45 360.89c2.3248-7.9634 1.5766-8.3776 8.6578-11.384s18.438-4.3424 22.326-2.6322 16.233 12.76 16.688 13.575 1.6567 5.0907 1.6567 5.0907 1.6835-2.846-6.4666-5.251-13.348-5.8256-22.232-3.3671-13.615 5.8656-15.018 8.9788-1.296 3.8614-1.296 3.8614l-4.3156-8.872z"/>
   <path d="m223.64 372.98c2.8859-5.9725 5.0638-6.7876 9.9672-7.7095s20.589 1.1224 23.635 3.2201 7.9898 7.5893 7.9898 7.5893-0.22714-0.8685-7.8829-1.4698-17.236-1.6034-23.208-0.38748-7.442 3.8214-7.442 3.8214l-3.0596-5.064z"/>
   <path d="m228.21 384.74c4.6629-3.9683 13.347-4.8903 17.73-3.0998s3.6609 3.7546 6.9209 6.3066 7.8428 6.4669 7.8428 6.4669 1.2292 0.82841-7.4554-2.552-9.3259-4.0352-15.405-1.7103-9.1656 2.4986-9.1656 2.4986l-0.46763-7.91z"/>
   <path d="m229 398.9c4.3289-2.552 6.1193-2.4852 10.475-2.5253s15.766 4.5162 16.621 4.7968 5.9322 0.8284-2.1645 3.2201-16.394 0.78832-19.707 1.9374-4.4091 1.1624-5.037 0.84176-0.48099-8.8319-0.18705-8.2707z"/>
   <path d="m229.43 410.31c4.2488 2.4585 4.7966 1.5633 10.261 0.85513s16.567-1.884 16.888-2.7391-0.0935 6.7742-0.0935 6.7742 2.1912-1.256-4.0483 0.53445-14.203 4.1287-17.543 3.9282-3.9147 0.26723-4.4492-0.5879-0.81501-8.9655-1.0154-8.7651z"/>
   <path d="m231.43 423.49c5.852 3.8748 14.537 0.92194 18.077-1.3629s6.1994-2.4451 6.1994-2.4451l-0.69477 5.0506s3.6475-2.1245-4.8767 1.8706-16.207 7.8164-18.291 5.4514-2.926-2.9796-2.7924-3.6878 2.6588-5.3579 2.3782-4.8769z"/>
   <path d="m226.82 433.12c2.4985 1.0556 10.488 2.6188 13.989 1.109s13.388-6.0126 13.388-6.0126 0.54779 2.9529 0.6814 3.8481 0.46763 2.6589-7.2817 4.8769-13.134 4.8636-16.995 2.6188-7.0229-2.2479-7.0229-2.2479c0.20628-1.7968 2.1414-2.8039 3.2418-4.1923z"/>
   <path d="m223.84 439.88c5.518-0.54782 6.9877 0.44093 11.29 1.8973s11.597 0.1737 14.403-2.552 5.4379-3.9149 5.4379-3.9149l-0.24049 8.8185s-0.28058 0.33404-6.1059 1.6969-12.185 2.7658-15.031-0.16034-4.1419-3.8481-7.0011-1.7102-2.5653 2.0042-3.0864 1.256 0.28058-5.1575 0.33403-5.3312z"/>
   <path d="m224.75 447.1c2.4584-1.7771 5.0504-0.13361 8.8048 2.0443s13.748 2.3249 15.94 0.0134 3.2923-1.4442 3.2923-1.4442c-0.39608 2.0208-0.79847 5.7666-1.5333 7.655 0 0-0.83493-1.099-1.0642-0.99993-5.6486 2.4404-8.5777 4.9704-13.641 2.4318s-7.0144-4.2756-9.072-3.18-1.7236 0.78833-1.9106-0.12025-1.0555-6.9479-0.81502-6.4001z"/>
   <path d="m227.82 458.6c3.9682-0.69479 6.4666 5.7187 10.034 4.8903s11.21-6.507 11.864-6.7742 0.94862 3.2869 0.94862 3.2869-1.1223 1.0155-5.1573 4.4493-7.8963 7.0548-8.7113 6.6406-5.037-4.4494-6.627-4.4494-2.5386-8.1371-2.3515-8.0436z"/>
   <path d="m230.25 470.25c3.8746 1.8572 9.8336 5.2911 9.8336 5.2911s7.0412-8.2039 7.4019-9.0457 3.2581-2.9152 3.2581-2.9152-2.6969 10.491-3.5787 11.974 0.20042-3.6477 0.20042-3.6477-3.3669 3.2468-3.6475 6.6005 0.90854 3.6209-3.0864 1.6702-9.1789-2.9128-9.1789-2.9128l-1.2025-7.0147z"/>
   <path d="m232.26 481.36s2.6989-3.5274 6.2128-0.70815 5.8921 4.6898 5.8921 4.6898 0.16033-5.3713 1.1223-7.469 1.9106-1.8706 1.9106-1.8706-0.6146 8.9655-1.0956 11.037-1.6033 6.7341-1.6033 6.7341 0.85509-4.1821-3.3269-5.3446-7.8829 0.6948-7.8829 0.6948l-1.2292-7.763z"/>
   <path d="m233.5 491.29c2.1244-0.12025 6.48 0.9353 7.9764 2.3249s2.3248-1.5098 2.3248-1.5098 2.5386 2.5788 2.445 3.474 0.53444 10.128 0.53444 10.128-3.7143-5.2377-8.3238-5.1174-4.3022 0.96202-4.7431 0.25387-0.0401-10.382-0.0401-10.382l-0.17369 0.82841z"/>
   <path d="m233.11 507.63c1.3227-3.1399 3.701-4.5162 7.0011-1.9107s6.48 0.56118 6.48 0.56118 0.73484 5.5984 0.6814 8.4177-1.7636 1.4163-4.1686 0.32067-4.7832-3.1132-6.3865-1.4831-2.1644-1.109-2.9527-1.884-1.0689-3.6477-0.65469-4.0218z"/>
   <path d="m232.54 516.14c4.0082 1.4564 5.4245-0.90858 8.8048-0.20042s2.8191 2.3115 2.8191 2.3115 6.5468 2.8059 2.9127 2.3516-7.6691-0.7616-10.074 1.4698-6.1994 5.5717-6.1994 5.5717-0.36075-1.5098 1.6701-3.9951 0.17369-2.0176 0.17369-2.0176l-0.10688-5.4915z"/>
   <path d="m231.01 528.06c2.2981-3.18 6.8541-7.6561 9.9672-7.7095s6.9343 1.8305 6.9343 1.8305 1.5632 4.6898 0.26722 3.6209-3.6074-2.9395-8.4975 0.72151-7.629 5.7187-8.2971 5.7187-0.10688-4.5562-0.3741-4.1821z"/>
   <path d="m231.7 534.49c1.7369-2.6188 9.3927-9.9275 12.412-9.1793s4.7297 3.6209 4.7297 3.6209-3.407-1.256-6.5335 0.40084-7.5355 7.3621-8.3772 8.0302-2.0175-2.4585-2.2313-2.8727z"/>
   <path d="m281.21 523.6c5.9857-2.2314 18.622 0.33741 19.464 0.19043s0.9219-2.5387 0.9219-2.5387-2.5653 2.405-5.9857 1.8305-14.694 0.31729-14.4 0.51772z"/>
   <path d="m283.89 517.75c4.85-3.033 15.518-4.6655 16.587-3.0888s2.445 1.5366 2.445 1.5366 1.1758-1.4297-0.69477-2.6589-1.8972-4.289-6.4266-1.884-9.9464 5.8814-13.153 4.6521-4.1285-0.72151-3.1799 0.29395 3.0463 1.0422 3.3001 3.1934 1.924 1.3495 1.6701 0.44092-0.48099-2.6055-0.5478-2.4852z"/>
   <path d="m282.52 512.58c5.7452-0.77496 5.5848-0.66807 9.3259-3.7946s7.4954-5.2911 9.8202-4.1955 2.4636 1.9071 2.4636 1.9071 4.5909 2.0613-0.0453 2.5423-6.1594-0.68143-10.234 1.8439-5.6784 3.474-8.07 2.8193-3.1398-1.1357-3.26-1.1224z"/>
   <path d="m278.76 507.86c6.2128 0.30731 7.7092 0.29395 10.288-2.1245s5.4245-4.6899 6.2395-4.8368 2.6321-1.0422-0.10689-1.0689-2.6187 0.48101-5.7051 3.1934-6.3731 1.3896-9.1789 1.7503-3.4605-1.8973-3.4605-1.8973-2.7256-0.90858 1.0555-0.65471 7.7626 2.2046 9.406 0.72151 2.8993-3.7946 5.4913-4.4894 6.9744 1.0556 8.7914 2.4719 1.7236 3.0842 1.7236 3.0842-0.89526-1.2937-3.9816-1.1601-4.3289-1.4297-7.589 2.1378-3.1532 3.8347-6.7606 4.5562-6.4533-0.0802-6.4533-0.0802l0.24049-1.6034z"/>
   <path d="m273.89 492.86c3.9548 0.57454 9.4595 0.94866 11.784-0.68143s4.4358-2.6589 5.184-2.1913 3.4942 0.92242 3.4942 0.92242l3.3867 4.8764s-2.6989-1.8973-6.4399-0.25387-5.7184 6.2932-10.261 4.3558-6.2796-3.033-6.9343-3.6076-0.60124-3.4606-0.21377-3.4205z"/>
   <path d="m265.66 482.86c1.8972-2.0977 4.7832-1.4698 6.9476-0.0267s6.2262 2.1913 7.6959 0.40084 4.1534-3.7744 5.5162-3.9748 1.8655 2.8779 1.8655 2.8779l6.6022 8.5509s-1.8255-3.2318-6.4083-3.5258-4.6763 3.4205-8.4841 3.2735-7.9631-2.6456-9.2858-2.071-1.3895 0.38748-1.3895 0.38748l-3.0596-5.8924z"/>
   <path d="m261.26 475.11c2.3114-1.3896 7.1748 1.0021 9.4595 0.38748s9.2858-2.1245 10.021-3.0464 2.4446-0.0808 2.4446-0.0808 2.4545 4.5373 1.773 4.7378-4.8056 4.3754-7.4109 4.3086-2.9528-1.1224-7.629-2.2581-7.148-0.80168-7.4687-1.4698-1.109-2.6456-1.1891-2.5788z"/>
   <path d="m281.06 464.97c-3.073 0.62799-4.1018 1.403-7.0412 1.8706s-8.3906-1.8439-10.462-0.25387-3.888 4.1554-3.888 4.1554-0.65468-1.0556 3.8613 0.32067 8.9384 3.2735 11.049 1.6034 6.1326-1.6568 6.1326-1.6568l2.3114-0.5879-1.964-5.4514z"/>
   <path d="m279.76 457.45c-4.1018-1.2292-16.006-0.0935-19.026-1.0689s-4.9168-0.90858-5.9055-0.77496-0.34739 2.7658-1.2826 4.4894-1.8438 2.4585 2.8191 3.7813 15.966-1.1357 18.638-0.57454 5.3086 0.65721 5.3086 0.65721l-0.55214-6.5095z"/>
   <path d="m279.94 456.02c-5.665-1.8706-11.343-6.6272-16.02-4.2222s-8.9518 3.3804-8.9518 3.3804l-0.10688-6.9078s3.22-2.8994 8.5777-2.8326 10.328 4.4494 12.866 4.8368 5.7852 0.44092 5.7852 0.44092l-2.1511 5.3045z"/>
   <path d="m281.53 449.61c-6.333-4.2088-10.234-8.578-14.684-6.7609s-11.236 2.6856-11.236 2.6856 0.9219-9.4198 0.76157-10.235 0.0668-0.49437 3.3135-1.9908 6.3731-2.6456 11.343-2.6589 15.058 1.9508 16.968 2.9529 3.7277 5.3446 3.7277 5.3446l-2.405 2.1913s3.1932-3.6343-4.5293-4.583-11.236-2.552-14.951-2.3115-1.8705 1.8973-0.53444 2.3115 12.706 3.4873 12.867 4.3024-1.2158-1.3228-1.9373-1.9908-1.9908-1.6969 0.66804-1.1491 7.2683 2.9395 7.3084 3.6878-0.46763 2.3516-2.3248 3.5942 1.8171 0.21378-3.3669-1.2426-7.0812-2.846-8.9518-2.3783-0.25386 0.50773 1.3895 1.0155 8.2436 4.8636 8.2436 4.8636l-1.6701 2.3516z"/>
   <path d="m260.72 421.94c3.1799 2.5788 4.8233 3.6744 7.9497 3.2602s8.1902-4.102 10.061-2.7658 1.4697 2.9796 1.4697 2.9796-1.3094-0.50773-5.4913 1.8973-4.6496 2.8593-5.4111 2.9796-6.6938 0.72151-9.9004 2.846-2.5386 2.2848-3.1532-0.9353-2.3649-5.0105-0.0935-7.5492 4.9702-1.9374 4.9702-1.9374l-0.40082-0.77496z"/>
   <path d="m296.7 434.64c-4.7164-4.1821-11.343-3.4205-13.254-7.0281s-0.52107-6.7475-3.8212-6.7876-14.243-0.7616-15.325-0.66807-1.3094-1.1491-1.3094-1.1491l4.3156-4.142s-1.149 0.33403 1.5499 0.84176 7.6958 0.0668 7.6958 0.0668 4.2755-1.6301-0.49435-2.0977-6.0926-1.4297-6.0926-1.4297l3.4337-4.4493s-0.88182-0.0802 1.4563 1.1758 4.5293 1.4831 4.85 2.218-3.3268 2.6322 1.2025 5.7721 10.849 7.0147 13.508 9.687 7.2015 5.5851 7.2015 5.5851l-4.9168 2.405z"/>
   <path d="m305.17 430.68c-0.48099-2.7391-5.5848-8.4711-6.6938-11.103s-3.5807-3.3804-6.3598-5.7855-3.7811-4.2756-3.9548-5.732-0.0935-1.8706 1.7369 0.0935 4.3824-0.70815 6.3464 2.8994-1.2559 2.8192 2.111 5.7053 9.3526 6.8945 11.584 7.2552 1.2025 2.1245 1.2025 2.1245l-5.9723 4.5429z"/>
   <path d="m314.63 421.53c-0.94862-1.0556-5.1038-2.0844-6.2529-3.1533s0.40083-1.9508 3.1665-1.4029 6.0792 0.86849 5.6116-0.0534-1.6835-2.0576-1.6835-2.0576 0.72148 0.0134 4.1953-0.0935 1.5632 1.3629 0.8551 1.737-5.9189 5.4648-5.8921 5.0239z"/>
   <path d="m273.62 371.19c5.9857 8.6448 12.92 7.2152 13.013 12.76s-3.5139 6.7742-2.8459 10.836 2.1645 6.5337 2.1645 6.5337-4.4358-2.7792-4.6362-5.2778 1.2426-4.9571 0.0668-7.4289-7.2416-15.072-7.5088-15.94 0.0534-1.1224-0.25386-1.4831z"/>
   <path d="m278.43 401.25c1.924 1.403 2.8191 2.6055 2.8191 2.6055s-3.9281 1.4698-5.0905 0.88185 2.258-3.8748 2.2714-3.4873z"/>
   <path d="m330.11 407.2c-2.4183-0.5879-11.09-1.9775-12.666-4.6097s-2.592-3.6076-2.592-3.6076 6.8541 3.5408 10.408 3.2869l9.0854-0.62799-4.2354 5.5583z"/>
   <path d="m341.6 394.1c-2.7523 0.25386-15.325 0.5879-18.772-2.6456s-1.443-3.5942-1.443-3.5942 5.8788 4.1287 11.25 3.1266 11.878-2.4184 11.878-2.4184l-2.9127 5.5316z"/>
   <path d="m339.76 380.16c-5.1573 2.1779-15.489 4.0936-20.887 0.63302s-2.8459 0.68143-2.8459 0.68143 6.2395 2.2848 14.39 2.3917 17.719-1.2339 17.719-1.2339l-8.3758-2.4722z"/>
   <path d="m207.43 306.39c-13.949 6.9479-18.117 8.9789-22.927 0.37412s-1.9774-14.217 3.0997-26.99 20.843-33.457 20.843-33.457l-0.10689 0.26724s-19.079 21.539-23.675 33.083 0.53443-7.9634 0.53443-7.9634 12.88-15.179 14.857-19.508 5.5047-10.636-5.7719 2.7792-11.17 26.669-11.17 26.669-2.0308-19.294 6.4132-27.685 17.957-20.202 17.957-20.202-0.37411 4.0619-9.9939 10.582-15.659 17.584-16.247 21.966 12.506-18.065 11.116-23.302-1.2292-12.613-1.2292-12.613 1.7102 9.5133-3.6342 20.416 2.2981-15.553 0.90854-20.47-7.4821-10.796-7.4821-10.796 8.2303 11.705 4.8634 25.707-7.4821 14.804-7.4821 14.804 5.9857-33.724 2.886-37.038 0.7482-0.64135-1.2826 11.17-5.5047 29.342-5.5047 29.342-5.4512 5.9859-2.8325-15.82 4.703-37.038 4.703-37.038 2.7791-3.4205-3.5807 14.911-3.4738 35.969-3.4738 35.969 0.42755-25.013-2.2981-42.436-2.3515 0.48101-1.0689 9.353-3.4738-7.322-5.2909-11.918 7.2149 18.492 6.2529 27.097-1.6568 1.5499-1.6568 1.5499-4.4358-24.906-12.292-28.7 9.1388-0.16032 7.5355 23.516 1.8705 53.873 1.8705 53.873-8.07-19.721-8.551-29.235-1.1758 18.492 0.32066 23.997 7.6424 14.911 7.6424 14.911-8.8716-10.422-11.597-19.401 0.58788 10.475 5.9322 17.637 7.9096 8.391 7.9096 8.391-14.857-8.4444-17.209-11.598 3.1532 7.8565 12.239 14.003 10.528 8.0703 6.5201 7.4824-2.5653 2.0309 0.37411 2.8861 14.056 1.0689 14.056 1.0689l-13.628-0.5879s-4.7565 4.3825 6.5735 3.9015 20.202-0.80169 20.202-0.80169-12.933 5.7721-6.0926 4.5429 17.743-8.4978 17.743-8.4978l5.8253-5.9859-3.0997-10.208z"/>
  </g>
  <path d="m619.57 314.15c0.61199-10.654 0.43255-18.411 3.4698-26.866s5.2006-14.885 7.4673-16.358 4.4156-1.0704 6.4103 6.3645 7.3212 12.399 6.7772 20.673c-0.45357 6.8418 3.5813 5.3722 1.9946-0.0453s-2.108-8.8856-4.0573-13.011 5.4853 10.518 6.0066 12.83 1.292 7.1175-0.408 7.2082-5.8479 0.49868-7.5252-3.1281-2.0853-10.291-3.5586-11.107-3.8878 1.4557-8.4319 6.7322c-4.5388 5.2703-5.8373 12.733-8.1448 16.708z" fill="#7e6966" stroke="#7e6966"/>
  <path d="m587.48 238.85c-0.0907 1.2694-0.52133 2.04 0.92932 1.972s0.11333-2.0401-0.92932-1.972z" fill="#fff"/>
  <path d="m270.23 646.31c-1.8171 4.436 9.1923 7.322 14.269 7.3755s14.269-4.0084 14.269-4.0084-1.924-6.841-5.665-9.0323-6.8942-4.917-14.109-1.2292-8.1234 7.803-8.7647 6.8945z" fill="#93877b" stroke="#93877b"/>
  <path d="m564.23 146.79c7.2462 9.1111 11.399 11.823 9.365 24.536s-4.592 7.3011-5.085 17.248c-0.66697 13.455-1.8645 12.798-2.3306 3.7292s6.2292-20.341 0.93226-32.419-9.4074-9.8315-7.2462-12.967 4.6613-0.55091 4.3647-0.12714z" fill-opacity=".99975" stroke="#000" stroke-width=".5"/>
  <path d="m470.41 282.7c-7.67-2.246-13.179-1.7798-10.594-3.3902s11.653 0.0424 9.1531-2.6698-0.55088-7.7126-0.55088-7.7126 5.3393-1.7375 7.331-0.97468 2.5425-0.16951 0.38138-2.4579 7.7971 2.6698 6.1868-1.7798-4.9579-7.8822-2.4154-4.6191 3.729 17.502 1.8221-4.6191-0.5085-13.857 0.93226-10.594 6.0173 12.798 5.1698 0.46615-0.25425-12.967 0.63564-6.0599 4.407 9.8315 4.2375 0.63565 2.9239 1.0171 4.746-7.8398 0.55088-1.0594 2.7544-4.1953 6.6953-2.2884 6.1868 1.8222 2.2883 4.3225 3.0934-6.3566 2.2459-16.527 3.2629-11.908 2.8815 10.213 3.7714 2.2036 0.67801-14.239 2.712-10.425 1.1441 16.019 5.085-1.6103 5.2122-18.858 6.3987-16.569 2.4154 0.76279 2.8815-2.924-3.2629-10.213-3.2629-10.213-0.21188-2.1612 2.373-0.88992 2.1612 6.2718 3.7714 11.145 1.9916 4.7039 1.9916 4.7039 3.4748-3.263-4.1104 1.2289-3.6867 10.255-7.3733 15.595-5.5088 13.264-8.4327 9.6196 1.3136-2.8393-2.373 2.1189-5.4664 2.246-5.4664 2.246 0.29662-0.97467-1.356 8.433-1.7798 12.332-5.3817 7.8822-2.8392-8.7297-6.1021 1.1018-1.356 18.392-6.5682 19.493-7.2038-6.6956-7.7123-0.42377 6.2292 12.925 1.4408 12.289 2.0764 1.3561-4.9579 6.9922-13.899 6.8651-9.6616 10.255z" fill-opacity=".99975" stroke="#000" stroke-width=".5"/>
 </g>
</svg>
